<svg id="2859c17c-9d27-4ee0-b9e3-86ce413748e6" data-name="Layer 1" xmlns="http://www.w3.org/2000/svg" width="427.02" height="493.08" viewBox="0 0 427.02 493.08" class="{{ class }}">
  <title>SecureDrop Logo in Transparent White</title>
  <path d="M213.51,493.08V246.54L427,123.27V369.81ZM372.72,352.73a32.43,32.43,0,0,0,16.21-28.08v-96a16,16,0,0,0-24-13.87L267,271.38v142.4ZM300.29,290l48.57-28a7,7,0,0,1,10.43,6v46.32a18.8,18.8,0,0,1-9.61,16.4l-49.39,27.69Z" style="fill: #fff;fill-rule: evenodd;opacity: 0.8"/>
  <path d="M0,369.81V123.27L213.51,246.54V493.08ZM159.56,273,50.3,209.91v85.24l74.77,43.17v16L50.3,311.14v35l109.27,63.09V323.29L80,277.38V261.19l79.53,45.91Z" style="fill: #fff;opacity: 0.6"/>
  <path d="M213.51,246.54,0,123.27,213.51,0,427,123.27ZM247.18,158l41.34-23.91L228.33,112a13.68,13.68,0,0,0,2-6.93c0-12.26-17.72-22.22-39.58-22.22s-39.57,10-39.57,22.22,17.71,22.23,39.57,22.23a68.53,68.53,0,0,0,8.58-.54Z" style="fill: #fff"/>
  <path d="M196.61,104.33c24.95,0,31.73,10.91,31.73,10.91v16.08L268.1,146l20.42-11.84L228.33,112a13.68,13.68,0,0,0,2-6.93c0-12.26-17.72-22.22-39.58-22.22s-39.57,10-39.57,22.22c0,5.17,3.14,9.92,8.4,13.69C165.2,110.33,179.65,104.33,196.61,104.33Z" style="fill: #fff;fill-rule: evenodd;opacity: 0.7000000000000001"/>
  <image src="{% static 'images/transparent_white_3x.png' %}" width="100" height="100" />
</svg>

