<svg id="3aad19e6-bdad-4b54-8de4-0f605a9710f4" data-name="Layer 1" xmlns="http://www.w3.org/2000/svg" width="200" height="179.89" viewBox="0 0 200 179.89">
  <title>documentation</title>
  <g>
    <path d="M170,60H2.5A2.5,2.5,0,0,0,0,62.5v5A2.5,2.5,0,0,0,2.5,70H170a20,20,0,1,1,0,40H2.5A2.5,2.5,0,0,0,0,112.5v5A2.5,2.5,0,0,0,2.5,120H170a30,30,0,0,0,0-60Z" style="fill: #0579e6;fill-rule: evenodd"/>
    <path d="M30,0H197.5A2.5,2.5,0,0,1,200,2.5v5a2.5,2.5,0,0,1-2.5,2.5H30a20,20,0,0,0,0,40H197.5a2.5,2.5,0,0,1,2.5,2.5v5a2.5,2.5,0,0,1-2.5,2.5H30A30,30,0,0,1,30,0Z" style="fill: #5e6b8f;fill-rule: evenodd"/>
    <path d="M30,119.89H197.5a2.51,2.51,0,0,1,2.5,2.5v5a2.5,2.5,0,0,1-2.5,2.5H30a20,20,0,1,0,0,40H197.5a2.51,2.51,0,0,1,2.5,2.5v5a2.5,2.5,0,0,1-2.5,2.5H30a30,30,0,0,1,0-60Z" style="fill: #1d3f64;fill-rule: evenodd"/>
    <g>
      <path d="M10,70H170a20,20,0,1,1,0,40H10a44.8,44.8,0,0,0,4.68-20A44.79,44.79,0,0,0,10,70Z" style="fill: #dddde0;fill-rule: evenodd"/>
      <path d="M190,10H30a20,20,0,0,0,0,40H190a45.06,45.06,0,0,1,0-40Z" style="fill: #dddde0;fill-rule: evenodd"/>
      <path d="M190,129.89H30a20,20,0,1,0,0,40H190a45.06,45.06,0,0,1,0-40Z" style="fill: #dddde0;fill-rule: evenodd"/>
    </g>
    <g>
      <path d="M185.57,77.5a20.13,20.13,0,0,1,3,5H14.06a44.69,44.69,0,0,0-1.14-5Zm4.27,10a19.86,19.86,0,0,1,0,5H14.61q.07-1.24.07-2.5t-.07-2.5Zm-1.32,10a20.08,20.08,0,0,1-3,5H12.92a44.64,44.64,0,0,0,1.14-5Z" style="fill: #aaaab0;fill-rule: evenodd"/>
      <path d="M14.43,17.5a20.12,20.12,0,0,0-3,5H185.94a44.74,44.74,0,0,1,1.14-5Zm-4.27,10a19.83,19.83,0,0,0,0,5H185.39q-.07-1.24-.07-2.5t.07-2.5Zm1.32,10a20.09,20.09,0,0,0,3,5H187.08a44.75,44.75,0,0,1-1.14-5Z" style="fill: #aaaab0;fill-rule: evenodd"/>
      <path d="M14.43,137.39a20.11,20.11,0,0,0-3,5H185.94a44.64,44.64,0,0,1,1.14-5Zm-4.27,10a19.82,19.82,0,0,0,0,5H185.39q-.07-1.24-.07-2.5t.07-2.5Zm1.32,10a20.13,20.13,0,0,0,3,5H187.08a44.78,44.78,0,0,1-1.14-5Z" style="fill: #aaaab0;fill-rule: evenodd"/>
    </g>
  </g>
</svg>
