<svg id="dc86d91e-ef66-400e-b41b-17df97e108d0" data-name="Layer 1" xmlns="http://www.w3.org/2000/svg" width="200" height="172.71" viewBox="0 0 200 172.71" preserveAspectRatio="xMinYMin meet">
  <title>forum</title>
  <path d="M190,0H10A10,10,0,0,0,0,10V130a10,10,0,0,0,10,10H150v30.2a2.5,2.5,0,0,0,3.93,2L195.73,143a9.73,9.73,0,0,0,4.27-8.19V10A10,10,0,0,0,190,0ZM48.12,85a15,15,0,1,1,15-15A15,15,0,0,1,48.12,85ZM100,85a15,15,0,1,1,15-15A15,15,0,0,1,100,85Zm51.87,0a15,15,0,1,1,15-15A15,15,0,0,1,151.87,85Z" style="fill: #1d3f64;fill-rule: evenodd"/>
</svg>