<?xml version="1.0" encoding="UTF-8"?>
<svg width="40px" height="45px" viewBox="0 0 40 45" version="1.1" xmlns="http://www.w3.org/2000/svg" xmlns:xlink="http://www.w3.org/1999/xlink">
    <title>Group 8</title>
    <defs>
        <polygon id="path-1" points="0.000461538462 0.542362609 39.8646154 0.542362609 39.8646154 44.8481048 0.000461538462 44.8481048"></polygon>
    </defs>
    <g id="Page-1" stroke="none" stroke-width="1" fill="none" fill-rule="evenodd">
        <g id="Header-—-k/o-Cube" transform="translate(-278.000000, -68.000000)">
            <g id="Group-8" transform="translate(278.000000, 68.000000)">
                <path d="M31.6454721,23.1331299 L26.6666667,26.2730835 L26.6834822,33.9393939 L31.7456647,30.8363087 C32.3447189,30.4714657 32.7272727,29.7594459 32.7272727,28.9928917 L32.7272727,23.7906153 C32.7111578,23.6623442 32.6943423,23.5348412 32.6277807,23.4257723 C32.428096,23.0601613 31.9950955,22.9142241 31.6454721,23.1331299" id="Fill-1" fill="#FFFFFF"></path>
                <g id="Group-5">
                    <mask id="mask-2" fill="white">
                        <use xlink:href="#path-1"></use>
                    </mask>
                    <g id="Clip-4"></g>
                    <path d="M36.5389231,29.5585722 C36.5389231,30.8409348 35.8443077,32.0336004 34.7112308,32.6835234 L22.8281538,39.4769286 L22.8281538,23.6340113 L33.852,17.3293785 C34.1258462,17.1849512 34.4366154,17.0944941 34.7473846,17.0944941 C35.7350769,17.0944941 36.5389231,17.9070878 36.5389231,18.8823523 L36.5389231,29.5585722 Z M16.5150769,27.2180894 L7.55738462,22.1053621 L7.55738462,24.3417052 L16.5150769,29.4529122 L16.5150769,39.0497278 L4.212,32.0412018 L4.212,28.1393837 L12.7673846,33.2065023 L12.8112308,31.0370519 L4.06584615,25.9 L4.212,16.4156857 L16.5150769,23.4249718 L16.5150769,27.2180894 Z M19.9258462,2.72169492 L36.3481538,11.20566 L19.9258462,20.5729122 L3.51584615,11.20566 L19.9258462,2.72169492 Z M39.792,10.8863996 L39.8650769,10.8445917 L19.9250769,0.542362609 L0.000461538462,10.8445917 L0.0727692308,10.8863996 L0.0727692308,33.516641 L19.9243077,44.8405033 L19.9243077,44.8481048 L19.932,44.8435439 L19.9396923,44.8481048 L19.9396923,44.8405033 L39.792,33.516641 L39.792,10.8863996 Z" id="Fill-3" fill="#FFFFFF" mask="url(#mask-2)"></path>
                </g>
                <path d="M26.8787879,12.272303 L20.7441478,10.3523674 C20.8654872,10.1297534 20.9261569,9.87370333 20.9261569,9.61677335 C20.9261569,8.33388327 19.2779634,7.27272727 17.2361946,7.27272727 C15.1944259,7.27272727 13.5454545,8.33388327 13.5454545,9.61677335 C13.5454545,10.8996634 15.1944259,11.9608194 17.2361946,11.9608194 C17.5076527,11.9608194 17.76511,11.9441014 18.0373458,11.9097854 L21.4247374,15.7575758 L26.8787879,12.272303 Z" id="Fill-6" fill="#FFFFFF"></path>
            </g>
        </g>
    </g>
</svg>