<?xml version="1.0" encoding="UTF-8"?>
<svg width="366px" height="423px" viewBox="66.5 2 366 423" version="1.1" xmlns="http://www.w3.org/2000/svg" xmlns:xlink="http://www.w3.org/1999/xlink">
    <title>Big Logo HP</title>
    <defs>
        <polygon id="path-1" points="0.816151163 0.810225606 184.279791 0.810225606 184.279791 319 0.816151163 319"></polygon>
        <polygon id="path-3" points="0.000171962617 0.810483558 183.325219 0.810483558 183.325219 319 0.000171962617 319"></polygon>
        <polygon id="path-5" points="0.000171896956 0.715135223 366.280611 0.715135223 366.280611 211.966698 0.000171896956 211.966698"></polygon>
    </defs>
    <g id="Big-Logo-HP" stroke="none" stroke-width="1" fill="none" fill-rule="evenodd">
        <g id="Group-13" transform="translate(66.000000, 1.000000)">
            <g id="Group-6" opacity="0.45" transform="translate(182.000000, 105.000000)">
                <path d="M117.461405,121.213981 L75.6711953,145.077073 L75.9000791,203.586488 L118.379521,179.952973 C123.431312,177.199771 126.646009,171.693367 126.646009,165.956526 L126.646009,126.262092 C126.416265,125.344644 126.416265,124.19762 125.727033,123.508889 C123.8908,120.755687 120.216614,119.607803 117.461405,121.213981" id="Fill-1" fill="#FFFFFF"></path>
                <g id="Group-5">
                    <mask id="mask-2" fill="white">
                        <use xlink:href="#path-1"></use>
                    </mask>
                    <g id="Clip-4"></g>
                    <path d="M151.9035,174.90512 C151.9035,184.771765 146.622826,193.949678 137.897709,198.997789 L47.1978023,251.312069 L47.1978023,129.015552 L131.237709,80.371921 C133.305407,79.2248968 135.601128,78.5361663 138.126593,78.5361663 C145.704709,78.5361663 151.9035,84.7313011 151.9035,92.3038968 L151.9035,174.90512 Z M0.816151163,106.58667 L0.816151163,319.000258 L184.280221,213.222953 L184.280221,0.810225606 L0.816151163,106.58667 Z" id="Fill-3" fill="#FFFFFF" mask="url(#mask-2)"></path>
                </g>
            </g>
            <g id="Group-9" opacity="0.3" transform="translate(0.000000, 105.000000)">
                <mask id="mask-4" fill="white">
                    <use xlink:href="#path-3"></use>
                </mask>
                <g id="Clip-8"></g>
                <path d="M137.665705,159.991484 L69.2916486,120.525767 L69.2916486,134.522214 L137.665705,173.987071 L137.665705,247.870395 L43.8231252,193.72036 L43.8231252,163.662993 L107.838789,200.832942 L107.838789,187.066071 L43.8231252,149.895263 L43.8231252,76.7006695 L137.665705,130.850705 L137.665705,159.991484 Z M0.000171962617,0.810483558 L0.000171962617,213.223211 L183.325219,319.000516 L183.325219,106.586928 L0.000171962617,0.810483558 Z" id="Fill-7" fill="#FFFFFF" mask="url(#mask-4)"></path>
            </g>
            <g id="Group-12" opacity="0.7">
                <mask id="mask-6" fill="white">
                    <use xlink:href="#path-5"></use>
                </mask>
                <g id="Clip-11"></g>
                <path d="M200.985551,144.9335 L256.260736,113.784091 L194.105376,96.6060826 C195.251928,94.544447 195.940376,92.2545036 195.940376,89.9645603 C195.940376,78.5122688 179.196753,68.892447 158.555366,68.892447 C137.91312,68.892447 121.170357,78.2831028 121.170357,89.9645603 C121.170357,101.64516 137.91312,111.035815 158.555366,111.035815 C161.307437,111.035815 163.830884,110.806649 166.582954,110.577483 L200.985551,144.9335 Z M183.025736,211.966698 L0.000171896956,106.37954 L183.025736,0.715135223 L366.280783,106.37954 L183.025736,211.966698 Z" id="Fill-10" fill="#FFFFFF" mask="url(#mask-6)"></path>
            </g>
        </g>
    </g>
</svg>