<?xml version="1.0" encoding="UTF-8"?>
<svg width="128" height="128" version="1.1" viewBox="0 0 128 128" xmlns="http://www.w3.org/2000/svg" xmlns:xlink="http://www.w3.org/1999/xlink">
	<title>search</title>
	<path d="M508.5,468.9l-121.4,-121.4c-2.3,-2.3 -5.3,-3.5 -8.5,-3.5h-13.2c31.5,-36.5 50.6,-84 50.6,-136c-5.68434e-14,-114.9 -93.1,-208 -208,-208c-114.9,0 -208,93.1 -208,208c0,114.9 93.1,208 208,208c52,0 99.5,-19.1 136,-50.6v13.2c0,3.2 1.3,6.2 3.5,8.5l121.4,121.4c4.7,4.7 12.3,4.7 17,0l22.6,-22.6c4.7,-4.7 4.7,-12.3 0,-17Zm-300.5,-100.9c-88.4,0 -160,-71.6 -160,-160c0,-88.4 71.6,-160 160,-160c88.4,0 160,71.6 160,160c0,88.4 -71.6,160 -160,160Z" transform="scale(0.25)" fill="#FFF"></path>
</svg>