<?xml version="1.0" encoding="UTF-8"?>
<svg width="128px" height="128px" viewBox="0 0 128 128" version="1.1" xmlns="http://www.w3.org/2000/svg" xmlns:xlink="http://www.w3.org/1999/xlink">
    <!-- Generator: Sketch 50.2 (55047) - http://www.bohemiancoding.com/sketch -->
    <title>Icons/Verified</title>
    <desc>Created with Sketch.</desc>
    <defs>
        <path d="M64,124.738531 L51.2924578,127.885129 L40.7563706,120.115085 L27.8119814,118.159197 L21.0513731,106.948627 L9.84080279,100.188019 L7.88491475,87.2436294 L0.114871027,76.7075422 L3.26146941,64 L0.114871027,51.2924578 L7.88491475,40.7563706 L9.84080279,27.8119814 L21.0513731,21.0513731 L27.8119814,9.84080279 L40.7563706,7.88491475 L51.2924578,0.114871027 L64,3.26146941 L76.7075422,0.114871027 L87.2436294,7.88491475 L100.188019,9.84080279 L106.948627,21.0513731 L118.159197,27.8119814 L120.115085,40.7563706 L127.885129,51.2924578 L124.738531,64 L127.885129,76.7075422 L120.115085,87.2436294 L118.159197,100.188019 L106.948627,106.948627 L100.188019,118.159197 L87.2436294,120.115085 L76.7075422,127.885129 L64,124.738531 Z M86.7923567,35 L80.4636943,41.576378 L54.9656051,66.9685039 L47.5363057,59.8440945 L40.9324841,53.2677165 L28,66.1464567 L34.6038217,72.7228346 L48.3617834,86.423622 L54.6904459,93 L61.2942675,86.423622 L93.3961783,54.4551181 L100,47.8787402 L86.7923567,35 Z" id="path-1"></path>
    </defs>
    <g id="Icons/Verified" stroke="none" stroke-width="1" fill="none" fill-rule="evenodd">
        <mask id="mask-2" fill="white">
            <use xlink:href="#path-1"></use>
        </mask>
        <use id="Combined-Shape" fill="#D8D8D8" xlink:href="#path-1"></use>
        <g id="Fills/Solid/Green" mask="url(#mask-2)" fill="#64A707">
            <rect id="Rectangle" x="0" y="0" width="128" height="128"></rect>
        </g>
    </g>
</svg>