<svg id="s" version="1.1" xmlns="http://www.w3.org/2000/svg" width="976.0000000000001" height="286.3657335180544" viewBox="0 0 976.0000000000001 286.3657335180544" class="{{ class }}">
<polygon class="hexagons-background__hexagon hexagons-background__hexagon--1" points="16,36.950417228136054 32,27.712812921102042 32,9.237604307034017 16.000000000000004,0 0,9.237604307034005 -1.0658141036401503e-14,27.712812921102028 15.999999999999979,36.950417228136054" id="hexagon-0"></polygon><polygon class="hexagons-background__hexagon hexagons-background__hexagon--4" points="32,64.66323014923809 48,55.425625842204084 48,36.950417228136054 32,27.71281292110204 16,36.95041722813605 15.99999999999999,55.42562584220407 31.99999999999998,64.66323014923809" id="hexagon-1"></polygon><polygon class="hexagons-background__hexagon hexagons-background__hexagon--10" points="16,92.37604307034012 32,83.13843876330611 32,64.66323014923809 16.000000000000004,55.42562584220407 0,64.66323014923807 -1.0658141036401503e-14,83.1384387633061 15.999999999999979,92.37604307034012" id="hexagon-2"></polygon><polygon class="hexagons-background__hexagon hexagons-background__hexagon--6" points="32,120.08885599144216 48,110.85125168440815 48,92.37604307034013 32,83.13843876330611 16,92.37604307034012 15.99999999999999,110.85125168440814 31.99999999999998,120.08885599144216" id="hexagon-3"></polygon><polygon class="hexagons-background__hexagon hexagons-background__hexagon--3" points="16,147.80166891254422 32,138.5640646055102 32,120.08885599144217 16.000000000000004,110.85125168440815 0,120.08885599144216 -1.0658141036401503e-14,138.56406460551017 15.999999999999979,147.80166891254422" id="hexagon-4"></polygon><polygon class="hexagons-background__hexagon hexagons-background__hexagon--7" points="32,175.51448183364624 48,166.27687752661222 48,147.8016689125442 32,138.56406460551017 16,147.8016689125442 15.99999999999999,166.2768775266122 31.99999999999998,175.51448183364624" id="hexagon-5"></polygon><polygon class="hexagons-background__hexagon hexagons-background__hexagon--5" points="16,203.2272947547483 32,193.98969044771428 32,175.51448183364624 16.000000000000004,166.27687752661222 0,175.51448183364624 -1.0658141036401503e-14,193.98969044771425 15.999999999999979,203.2272947547483" id="hexagon-6"></polygon><polygon class="hexagons-background__hexagon hexagons-background__hexagon--9" points="32,230.94010767585033 48,221.7025033688163 48,203.22729475474827 32,193.98969044771425 16,203.22729475474827 15.99999999999999,221.70250336881628 31.99999999999998,230.94010767585033" id="hexagon-7"></polygon><polygon class="hexagons-background__hexagon hexagons-background__hexagon--9" points="16,258.65292059695236 32,249.41531628991834 32,230.9401076758503 16.000000000000004,221.70250336881628 0,230.9401076758503 -1.0658141036401503e-14,249.4153162899183 15.999999999999979,258.65292059695236" id="hexagon-8"></polygon><polygon class="hexagons-background__hexagon hexagons-background__hexagon--4" points="32,286.36573351805436 48,277.12812921102034 48,258.6529205969523 32,249.41531628991828 16,258.6529205969523 15.99999999999999,277.12812921102034 31.99999999999998,286.36573351805436" id="hexagon-9"></polygon><polygon class="hexagons-background__hexagon hexagons-background__hexagon--2" points="48,36.950417228136054 64,27.712812921102042 64,9.237604307034017 48,0 32,9.237604307034005 31.99999999999999,27.712812921102028 47.99999999999998,36.950417228136054" id="hexagon-10"></polygon><polygon class="hexagons-background__hexagon hexagons-background__hexagon--6" points="64,64.66323014923809 80,55.425625842204084 80,36.950417228136054 64,27.71281292110204 48,36.95041722813605 47.999999999999986,55.42562584220407 63.99999999999998,64.66323014923809" id="hexagon-11"></polygon><polygon class="hexagons-background__hexagon hexagons-background__hexagon--10" points="48,92.37604307034012 64,83.13843876330611 64,64.66323014923809 48,55.42562584220407 32,64.66323014923807 31.99999999999999,83.1384387633061 47.99999999999998,92.37604307034012" id="hexagon-12"></polygon><polygon class="hexagons-background__hexagon hexagons-background__hexagon--6" points="64,120.08885599144216 80,110.85125168440815 80,92.37604307034013 64,83.13843876330611 48,92.37604307034012 47.999999999999986,110.85125168440814 63.99999999999998,120.08885599144216" id="hexagon-13"></polygon><polygon class="hexagons-background__hexagon hexagons-background__hexagon--1" points="48,147.80166891254422 64,138.5640646055102 64,120.08885599144217 48,110.85125168440815 32,120.08885599144216 31.99999999999999,138.56406460551017 47.99999999999998,147.80166891254422" id="hexagon-14"></polygon><polygon class="hexagons-background__hexagon hexagons-background__hexagon--6" points="64,175.51448183364624 80,166.27687752661222 80,147.8016689125442 64,138.56406460551017 48,147.8016689125442 47.999999999999986,166.2768775266122 63.99999999999998,175.51448183364624" id="hexagon-15"></polygon><polygon class="hexagons-background__hexagon hexagons-background__hexagon--8" points="48,203.2272947547483 64,193.98969044771428 64,175.51448183364624 48,166.27687752661222 32,175.51448183364624 31.99999999999999,193.98969044771425 47.99999999999998,203.2272947547483" id="hexagon-16"></polygon><polygon class="hexagons-background__hexagon hexagons-background__hexagon--6" points="64,230.94010767585033 80,221.7025033688163 80,203.22729475474827 64,193.98969044771425 48,203.22729475474827 47.999999999999986,221.70250336881628 63.99999999999998,230.94010767585033" id="hexagon-17"></polygon><polygon class="hexagons-background__hexagon hexagons-background__hexagon--3" points="48,258.65292059695236 64,249.41531628991834 64,230.9401076758503 48,221.70250336881628 32,230.9401076758503 31.99999999999999,249.4153162899183 47.99999999999998,258.65292059695236" id="hexagon-18"></polygon><polygon class="hexagons-background__hexagon hexagons-background__hexagon--3" points="64,286.36573351805436 80,277.12812921102034 80,258.6529205969523 64,249.41531628991828 48,258.6529205969523 47.999999999999986,277.12812921102034 63.99999999999998,286.36573351805436" id="hexagon-19"></polygon><polygon class="hexagons-background__hexagon hexagons-background__hexagon--10" points="80,36.950417228136054 96,27.712812921102042 96,9.237604307034017 80,0 64,9.237604307034005 63.999999999999986,27.712812921102028 79.99999999999999,36.950417228136054" id="hexagon-20"></polygon><polygon class="hexagons-background__hexagon hexagons-background__hexagon--8" points="96,64.66323014923809 112,55.425625842204084 112,36.950417228136054 96,27.71281292110204 80,36.95041722813605 79.99999999999999,55.42562584220407 95.99999999999999,64.66323014923809" id="hexagon-21"></polygon><polygon class="hexagons-background__hexagon hexagons-background__hexagon--3" points="80,92.37604307034012 96,83.13843876330611 96,64.66323014923809 80,55.42562584220407 64,64.66323014923807 63.999999999999986,83.1384387633061 79.99999999999999,92.37604307034012" id="hexagon-22"></polygon><polygon class="hexagons-background__hexagon hexagons-background__hexagon--6" points="96,120.08885599144216 112,110.85125168440815 112,92.37604307034013 96,83.13843876330611 80,92.37604307034012 79.99999999999999,110.85125168440814 95.99999999999999,120.08885599144216" id="hexagon-23"></polygon><polygon class="hexagons-background__hexagon hexagons-background__hexagon--5" points="80,147.80166891254422 96,138.5640646055102 96,120.08885599144217 80,110.85125168440815 64,120.08885599144216 63.999999999999986,138.56406460551017 79.99999999999999,147.80166891254422" id="hexagon-24"></polygon><polygon class="hexagons-background__hexagon hexagons-background__hexagon--10" points="96,175.51448183364624 112,166.27687752661222 112,147.8016689125442 96,138.56406460551017 80,147.8016689125442 79.99999999999999,166.2768775266122 95.99999999999999,175.51448183364624" id="hexagon-25"></polygon><polygon class="hexagons-background__hexagon hexagons-background__hexagon--6" points="80,203.2272947547483 96,193.98969044771428 96,175.51448183364624 80,166.27687752661222 64,175.51448183364624 63.999999999999986,193.98969044771425 79.99999999999999,203.2272947547483" id="hexagon-26"></polygon><polygon class="hexagons-background__hexagon hexagons-background__hexagon--3" points="96,230.94010767585033 112,221.7025033688163 112,203.22729475474827 96,193.98969044771425 80,203.22729475474827 79.99999999999999,221.70250336881628 95.99999999999999,230.94010767585033" id="hexagon-27"></polygon><polygon class="hexagons-background__hexagon hexagons-background__hexagon--3" points="80,258.65292059695236 96,249.41531628991834 96,230.9401076758503 80,221.70250336881628 64,230.9401076758503 63.999999999999986,249.4153162899183 79.99999999999999,258.65292059695236" id="hexagon-28"></polygon><polygon class="hexagons-background__hexagon hexagons-background__hexagon--2" points="96,286.36573351805436 112,277.12812921102034 112,258.6529205969523 96,249.41531628991828 80,258.6529205969523 79.99999999999999,277.12812921102034 95.99999999999999,286.36573351805436" id="hexagon-29"></polygon><polygon class="hexagons-background__hexagon hexagons-background__hexagon--2" points="112,36.950417228136054 128,27.712812921102042 128,9.237604307034017 112,0 96,9.237604307034005 95.99999999999999,27.712812921102028 111.99999999999999,36.950417228136054" id="hexagon-30"></polygon><polygon class="hexagons-background__hexagon hexagons-background__hexagon--10" points="128,64.66323014923809 144,55.425625842204084 144,36.950417228136054 128,27.71281292110204 112,36.95041722813605 111.99999999999999,55.42562584220407 127.99999999999999,64.66323014923809" id="hexagon-31"></polygon><polygon class="hexagons-background__hexagon hexagons-background__hexagon--5" points="112,92.37604307034012 128,83.13843876330611 128,64.66323014923809 112,55.42562584220407 96,64.66323014923807 95.99999999999999,83.1384387633061 111.99999999999999,92.37604307034012" id="hexagon-32"></polygon><polygon class="hexagons-background__hexagon hexagons-background__hexagon--7" points="128,120.08885599144216 144,110.85125168440815 144,92.37604307034013 128,83.13843876330611 112,92.37604307034012 111.99999999999999,110.85125168440814 127.99999999999999,120.08885599144216" id="hexagon-33"></polygon><polygon class="hexagons-background__hexagon hexagons-background__hexagon--7" points="112,147.80166891254422 128,138.5640646055102 128,120.08885599144217 112,110.85125168440815 96,120.08885599144216 95.99999999999999,138.56406460551017 111.99999999999999,147.80166891254422" id="hexagon-34"></polygon><polygon class="hexagons-background__hexagon hexagons-background__hexagon--4" points="128,175.51448183364624 144,166.27687752661222 144,147.8016689125442 128,138.56406460551017 112,147.8016689125442 111.99999999999999,166.2768775266122 127.99999999999999,175.51448183364624" id="hexagon-35"></polygon><polygon class="hexagons-background__hexagon hexagons-background__hexagon--9" points="112,203.2272947547483 128,193.98969044771428 128,175.51448183364624 112,166.27687752661222 96,175.51448183364624 95.99999999999999,193.98969044771425 111.99999999999999,203.2272947547483" id="hexagon-36"></polygon><polygon class="hexagons-background__hexagon hexagons-background__hexagon--7" points="128,230.94010767585033 144,221.7025033688163 144,203.22729475474827 128,193.98969044771425 112,203.22729475474827 111.99999999999999,221.70250336881628 127.99999999999999,230.94010767585033" id="hexagon-37"></polygon><polygon class="hexagons-background__hexagon hexagons-background__hexagon--9" points="112,258.65292059695236 128,249.41531628991834 128,230.9401076758503 112,221.70250336881628 96,230.9401076758503 95.99999999999999,249.4153162899183 111.99999999999999,258.65292059695236" id="hexagon-38"></polygon><polygon class="hexagons-background__hexagon hexagons-background__hexagon--2" points="128,286.36573351805436 144,277.12812921102034 144,258.6529205969523 128,249.41531628991828 112,258.6529205969523 111.99999999999999,277.12812921102034 127.99999999999999,286.36573351805436" id="hexagon-39"></polygon><polygon class="hexagons-background__hexagon hexagons-background__hexagon--9" points="144,36.950417228136054 160,27.712812921102042 160,9.237604307034017 144,0 128,9.237604307034005 127.99999999999999,27.712812921102028 143.99999999999997,36.950417228136054" id="hexagon-40"></polygon><polygon class="hexagons-background__hexagon hexagons-background__hexagon--2" points="160,64.66323014923809 176,55.425625842204084 176,36.950417228136054 160,27.71281292110204 144,36.95041722813605 144,55.42562584220407 159.99999999999997,64.66323014923809" id="hexagon-41"></polygon><polygon class="hexagons-background__hexagon hexagons-background__hexagon--10" points="144,92.37604307034012 160,83.13843876330611 160,64.66323014923809 144,55.42562584220407 128,64.66323014923807 127.99999999999999,83.1384387633061 143.99999999999997,92.37604307034012" id="hexagon-42"></polygon><polygon class="hexagons-background__hexagon hexagons-background__hexagon--5" points="160,120.08885599144216 176,110.85125168440815 176,92.37604307034013 160,83.13843876330611 144,92.37604307034012 144,110.85125168440814 159.99999999999997,120.08885599144216" id="hexagon-43"></polygon><polygon class="hexagons-background__hexagon hexagons-background__hexagon--4" points="144,147.80166891254422 160,138.5640646055102 160,120.08885599144217 144,110.85125168440815 128,120.08885599144216 127.99999999999999,138.56406460551017 143.99999999999997,147.80166891254422" id="hexagon-44"></polygon><polygon class="hexagons-background__hexagon hexagons-background__hexagon--3" points="160,175.51448183364624 176,166.27687752661222 176,147.8016689125442 160,138.56406460551017 144,147.8016689125442 144,166.2768775266122 159.99999999999997,175.51448183364624" id="hexagon-45"></polygon><polygon class="hexagons-background__hexagon hexagons-background__hexagon--3" points="144,203.2272947547483 160,193.98969044771428 160,175.51448183364624 144,166.27687752661222 128,175.51448183364624 127.99999999999999,193.98969044771425 143.99999999999997,203.2272947547483" id="hexagon-46"></polygon><polygon class="hexagons-background__hexagon hexagons-background__hexagon--4" points="160,230.94010767585033 176,221.7025033688163 176,203.22729475474827 160,193.98969044771425 144,203.22729475474827 144,221.70250336881628 159.99999999999997,230.94010767585033" id="hexagon-47"></polygon><polygon class="hexagons-background__hexagon hexagons-background__hexagon--3" points="144,258.65292059695236 160,249.41531628991834 160,230.9401076758503 144,221.70250336881628 128,230.9401076758503 127.99999999999999,249.4153162899183 143.99999999999997,258.65292059695236" id="hexagon-48"></polygon><polygon class="hexagons-background__hexagon hexagons-background__hexagon--3" points="160,286.36573351805436 176,277.12812921102034 176,258.6529205969523 160,249.41531628991828 144,258.6529205969523 144,277.12812921102034 159.99999999999997,286.36573351805436" id="hexagon-49"></polygon><polygon class="hexagons-background__hexagon hexagons-background__hexagon--1" points="176,36.950417228136054 192,27.712812921102042 192,9.237604307034017 176,0 160,9.237604307034005 160,27.712812921102028 175.99999999999997,36.950417228136054" id="hexagon-50"></polygon><polygon class="hexagons-background__hexagon hexagons-background__hexagon--4" points="192,64.66323014923809 208,55.425625842204084 208,36.950417228136054 192,27.71281292110204 176,36.95041722813605 176,55.42562584220407 191.99999999999997,64.66323014923809" id="hexagon-51"></polygon><polygon class="hexagons-background__hexagon hexagons-background__hexagon--8" points="176,92.37604307034012 192,83.13843876330611 192,64.66323014923809 176,55.42562584220407 160,64.66323014923807 160,83.1384387633061 175.99999999999997,92.37604307034012" id="hexagon-52"></polygon><polygon class="hexagons-background__hexagon hexagons-background__hexagon--10" points="192,120.08885599144216 208,110.85125168440815 208,92.37604307034013 192,83.13843876330611 176,92.37604307034012 176,110.85125168440814 191.99999999999997,120.08885599144216" id="hexagon-53"></polygon><polygon class="hexagons-background__hexagon hexagons-background__hexagon--9" points="176,147.80166891254422 192,138.5640646055102 192,120.08885599144217 176,110.85125168440815 160,120.08885599144216 160,138.56406460551017 175.99999999999997,147.80166891254422" id="hexagon-54"></polygon><polygon class="hexagons-background__hexagon hexagons-background__hexagon--9" points="192,175.51448183364624 208,166.27687752661222 208,147.8016689125442 192,138.56406460551017 176,147.8016689125442 176,166.2768775266122 191.99999999999997,175.51448183364624" id="hexagon-55"></polygon><polygon class="hexagons-background__hexagon hexagons-background__hexagon--2" points="176,203.2272947547483 192,193.98969044771428 192,175.51448183364624 176,166.27687752661222 160,175.51448183364624 160,193.98969044771425 175.99999999999997,203.2272947547483" id="hexagon-56"></polygon><polygon class="hexagons-background__hexagon hexagons-background__hexagon--10" points="192,230.94010767585033 208,221.7025033688163 208,203.22729475474827 192,193.98969044771425 176,203.22729475474827 176,221.70250336881628 191.99999999999997,230.94010767585033" id="hexagon-57"></polygon><polygon class="hexagons-background__hexagon hexagons-background__hexagon--1" points="176,258.65292059695236 192,249.41531628991834 192,230.9401076758503 176,221.70250336881628 160,230.9401076758503 160,249.4153162899183 175.99999999999997,258.65292059695236" id="hexagon-58"></polygon><polygon class="hexagons-background__hexagon hexagons-background__hexagon--9" points="192,286.36573351805436 208,277.12812921102034 208,258.6529205969523 192,249.41531628991828 176,258.6529205969523 176,277.12812921102034 191.99999999999997,286.36573351805436" id="hexagon-59"></polygon><polygon class="hexagons-background__hexagon hexagons-background__hexagon--6" points="208,36.950417228136054 224,27.712812921102042 224,9.237604307034017 208,0 192,9.237604307034005 192,27.712812921102028 207.99999999999997,36.950417228136054" id="hexagon-60"></polygon><polygon class="hexagons-background__hexagon hexagons-background__hexagon--3" points="224,64.66323014923809 240,55.425625842204084 240,36.950417228136054 224,27.71281292110204 208,36.95041722813605 208,55.42562584220407 223.99999999999997,64.66323014923809" id="hexagon-61"></polygon><polygon class="hexagons-background__hexagon hexagons-background__hexagon--5" points="208,92.37604307034012 224,83.13843876330611 224,64.66323014923809 208,55.42562584220407 192,64.66323014923807 192,83.1384387633061 207.99999999999997,92.37604307034012" id="hexagon-62"></polygon><polygon class="hexagons-background__hexagon hexagons-background__hexagon--2" points="224,120.08885599144216 240,110.85125168440815 240,92.37604307034013 224,83.13843876330611 208,92.37604307034012 208,110.85125168440814 223.99999999999997,120.08885599144216" id="hexagon-63"></polygon><polygon class="hexagons-background__hexagon hexagons-background__hexagon--8" points="208,147.80166891254422 224,138.5640646055102 224,120.08885599144217 208,110.85125168440815 192,120.08885599144216 192,138.56406460551017 207.99999999999997,147.80166891254422" id="hexagon-64"></polygon><polygon class="hexagons-background__hexagon hexagons-background__hexagon--10" points="224,175.51448183364624 240,166.27687752661222 240,147.8016689125442 224,138.56406460551017 208,147.8016689125442 208,166.2768775266122 223.99999999999997,175.51448183364624" id="hexagon-65"></polygon><polygon class="hexagons-background__hexagon hexagons-background__hexagon--2" points="208,203.2272947547483 224,193.98969044771428 224,175.51448183364624 208,166.27687752661222 192,175.51448183364624 192,193.98969044771425 207.99999999999997,203.2272947547483" id="hexagon-66"></polygon><polygon class="hexagons-background__hexagon hexagons-background__hexagon--2" points="224,230.94010767585033 240,221.7025033688163 240,203.22729475474827 224,193.98969044771425 208,203.22729475474827 208,221.70250336881628 223.99999999999997,230.94010767585033" id="hexagon-67"></polygon><polygon class="hexagons-background__hexagon hexagons-background__hexagon--7" points="208,258.65292059695236 224,249.41531628991834 224,230.9401076758503 208,221.70250336881628 192,230.9401076758503 192,249.4153162899183 207.99999999999997,258.65292059695236" id="hexagon-68"></polygon><polygon class="hexagons-background__hexagon hexagons-background__hexagon--3" points="224,286.36573351805436 240,277.12812921102034 240,258.6529205969523 224,249.41531628991828 208,258.6529205969523 208,277.12812921102034 223.99999999999997,286.36573351805436" id="hexagon-69"></polygon><polygon class="hexagons-background__hexagon hexagons-background__hexagon--3" points="240,36.950417228136054 256,27.712812921102042 256,9.237604307034017 240,0 224,9.237604307034005 224,27.712812921102028 239.99999999999997,36.950417228136054" id="hexagon-70"></polygon><polygon class="hexagons-background__hexagon hexagons-background__hexagon--9" points="256,64.66323014923809 272,55.425625842204084 272,36.950417228136054 256,27.71281292110204 240,36.95041722813605 240,55.42562584220407 255.99999999999997,64.66323014923809" id="hexagon-71"></polygon><polygon class="hexagons-background__hexagon hexagons-background__hexagon--3" points="240,92.37604307034012 256,83.13843876330611 256,64.66323014923809 240,55.42562584220407 224,64.66323014923807 224,83.1384387633061 239.99999999999997,92.37604307034012" id="hexagon-72"></polygon><polygon class="hexagons-background__hexagon hexagons-background__hexagon--6" points="256,120.08885599144216 272,110.85125168440815 272,92.37604307034013 256,83.13843876330611 240,92.37604307034012 240,110.85125168440814 255.99999999999997,120.08885599144216" id="hexagon-73"></polygon><polygon class="hexagons-background__hexagon hexagons-background__hexagon--1" points="240,147.80166891254422 256,138.5640646055102 256,120.08885599144217 240,110.85125168440815 224,120.08885599144216 224,138.56406460551017 239.99999999999997,147.80166891254422" id="hexagon-74"></polygon><polygon class="hexagons-background__hexagon hexagons-background__hexagon--5" points="256,175.51448183364624 272,166.27687752661222 272,147.8016689125442 256,138.56406460551017 240,147.8016689125442 240,166.2768775266122 255.99999999999997,175.51448183364624" id="hexagon-75"></polygon><polygon class="hexagons-background__hexagon hexagons-background__hexagon--8" points="240,203.2272947547483 256,193.98969044771428 256,175.51448183364624 240,166.27687752661222 224,175.51448183364624 224,193.98969044771425 239.99999999999997,203.2272947547483" id="hexagon-76"></polygon><polygon class="hexagons-background__hexagon hexagons-background__hexagon--5" points="256,230.94010767585033 272,221.7025033688163 272,203.22729475474827 256,193.98969044771425 240,203.22729475474827 240,221.70250336881628 255.99999999999997,230.94010767585033" id="hexagon-77"></polygon><polygon class="hexagons-background__hexagon hexagons-background__hexagon--7" points="240,258.65292059695236 256,249.41531628991834 256,230.9401076758503 240,221.70250336881628 224,230.9401076758503 224,249.4153162899183 239.99999999999997,258.65292059695236" id="hexagon-78"></polygon><polygon class="hexagons-background__hexagon hexagons-background__hexagon--6" points="256,286.36573351805436 272,277.12812921102034 272,258.6529205969523 256,249.41531628991828 240,258.6529205969523 240,277.12812921102034 255.99999999999997,286.36573351805436" id="hexagon-79"></polygon><polygon class="hexagons-background__hexagon hexagons-background__hexagon--9" points="272,36.950417228136054 288,27.712812921102042 288,9.237604307034017 272,0 256,9.237604307034005 256,27.712812921102028 272,36.950417228136054" id="hexagon-80"></polygon><polygon class="hexagons-background__hexagon hexagons-background__hexagon--1" points="288,64.66323014923809 304,55.425625842204084 304,36.950417228136054 288,27.71281292110204 272,36.95041722813605 272,55.42562584220407 288,64.66323014923809" id="hexagon-81"></polygon><polygon class="hexagons-background__hexagon hexagons-background__hexagon--10" points="272,92.37604307034012 288,83.13843876330611 288,64.66323014923809 272,55.42562584220407 256,64.66323014923807 256,83.1384387633061 272,92.37604307034012" id="hexagon-82"></polygon><polygon class="hexagons-background__hexagon hexagons-background__hexagon--2" points="288,120.08885599144216 304,110.85125168440815 304,92.37604307034013 288,83.13843876330611 272,92.37604307034012 272,110.85125168440814 288,120.08885599144216" id="hexagon-83"></polygon><polygon class="hexagons-background__hexagon hexagons-background__hexagon--4" points="272,147.80166891254422 288,138.5640646055102 288,120.08885599144217 272,110.85125168440815 256,120.08885599144216 256,138.56406460551017 272,147.80166891254422" id="hexagon-84"></polygon><polygon class="hexagons-background__hexagon hexagons-background__hexagon--10" points="288,175.51448183364624 304,166.27687752661222 304,147.8016689125442 288,138.56406460551017 272,147.8016689125442 272,166.2768775266122 288,175.51448183364624" id="hexagon-85"></polygon><polygon class="hexagons-background__hexagon hexagons-background__hexagon--1" points="272,203.2272947547483 288,193.98969044771428 288,175.51448183364624 272,166.27687752661222 256,175.51448183364624 256,193.98969044771425 272,203.2272947547483" id="hexagon-86"></polygon><polygon class="hexagons-background__hexagon hexagons-background__hexagon--5" points="288,230.94010767585033 304,221.7025033688163 304,203.22729475474827 288,193.98969044771425 272,203.22729475474827 272,221.70250336881628 288,230.94010767585033" id="hexagon-87"></polygon><polygon class="hexagons-background__hexagon hexagons-background__hexagon--1" points="272,258.65292059695236 288,249.41531628991834 288,230.9401076758503 272,221.70250336881628 256,230.9401076758503 256,249.4153162899183 272,258.65292059695236" id="hexagon-88"></polygon><polygon class="hexagons-background__hexagon hexagons-background__hexagon--6" points="288,286.36573351805436 304,277.12812921102034 304,258.6529205969523 288,249.41531628991828 272,258.6529205969523 272,277.12812921102034 288,286.36573351805436" id="hexagon-89"></polygon><polygon class="hexagons-background__hexagon hexagons-background__hexagon--4" points="304,36.950417228136054 320,27.712812921102042 320,9.237604307034017 304,0 288,9.237604307034005 288,27.712812921102028 304,36.950417228136054" id="hexagon-90"></polygon><polygon class="hexagons-background__hexagon hexagons-background__hexagon--6" points="320,64.66323014923809 336,55.425625842204084 336,36.950417228136054 320,27.71281292110204 304,36.95041722813605 304,55.42562584220407 320,64.66323014923809" id="hexagon-91"></polygon><polygon class="hexagons-background__hexagon hexagons-background__hexagon--2" points="304,92.37604307034012 320,83.13843876330611 320,64.66323014923809 304,55.42562584220407 288,64.66323014923807 288,83.1384387633061 304,92.37604307034012" id="hexagon-92"></polygon><polygon class="hexagons-background__hexagon hexagons-background__hexagon--5" points="320,120.08885599144216 336,110.85125168440815 336,92.37604307034013 320,83.13843876330611 304,92.37604307034012 304,110.85125168440814 320,120.08885599144216" id="hexagon-93"></polygon><polygon class="hexagons-background__hexagon hexagons-background__hexagon--4" points="304,147.80166891254422 320,138.5640646055102 320,120.08885599144217 304,110.85125168440815 288,120.08885599144216 288,138.56406460551017 304,147.80166891254422" id="hexagon-94"></polygon><polygon class="hexagons-background__hexagon hexagons-background__hexagon--1" points="320,175.51448183364624 336,166.27687752661222 336,147.8016689125442 320,138.56406460551017 304,147.8016689125442 304,166.2768775266122 320,175.51448183364624" id="hexagon-95"></polygon><polygon class="hexagons-background__hexagon hexagons-background__hexagon--3" points="304,203.2272947547483 320,193.98969044771428 320,175.51448183364624 304,166.27687752661222 288,175.51448183364624 288,193.98969044771425 304,203.2272947547483" id="hexagon-96"></polygon><polygon class="hexagons-background__hexagon hexagons-background__hexagon--8" points="320,230.94010767585033 336,221.7025033688163 336,203.22729475474827 320,193.98969044771425 304,203.22729475474827 304,221.70250336881628 320,230.94010767585033" id="hexagon-97"></polygon><polygon class="hexagons-background__hexagon hexagons-background__hexagon--2" points="304,258.65292059695236 320,249.41531628991834 320,230.9401076758503 304,221.70250336881628 288,230.9401076758503 288,249.4153162899183 304,258.65292059695236" id="hexagon-98"></polygon><polygon class="hexagons-background__hexagon hexagons-background__hexagon--7" points="320,286.36573351805436 336,277.12812921102034 336,258.6529205969523 320,249.41531628991828 304,258.6529205969523 304,277.12812921102034 320,286.36573351805436" id="hexagon-99"></polygon><polygon class="hexagons-background__hexagon hexagons-background__hexagon--5" points="336,36.950417228136054 352,27.712812921102042 352,9.237604307034017 336,0 320,9.237604307034005 320,27.712812921102028 336,36.950417228136054" id="hexagon-100"></polygon><polygon class="hexagons-background__hexagon hexagons-background__hexagon--6" points="352,64.66323014923809 368,55.425625842204084 368,36.950417228136054 352,27.71281292110204 336,36.95041722813605 336,55.42562584220407 352,64.66323014923809" id="hexagon-101"></polygon><polygon class="hexagons-background__hexagon hexagons-background__hexagon--1" points="336,92.37604307034012 352,83.13843876330611 352,64.66323014923809 336,55.42562584220407 320,64.66323014923807 320,83.1384387633061 336,92.37604307034012" id="hexagon-102"></polygon><polygon class="hexagons-background__hexagon hexagons-background__hexagon--8" points="352,120.08885599144216 368,110.85125168440815 368,92.37604307034013 352,83.13843876330611 336,92.37604307034012 336,110.85125168440814 352,120.08885599144216" id="hexagon-103"></polygon><polygon class="hexagons-background__hexagon hexagons-background__hexagon--1" points="336,147.80166891254422 352,138.5640646055102 352,120.08885599144217 336,110.85125168440815 320,120.08885599144216 320,138.56406460551017 336,147.80166891254422" id="hexagon-104"></polygon><polygon class="hexagons-background__hexagon hexagons-background__hexagon--1" points="352,175.51448183364624 368,166.27687752661222 368,147.8016689125442 352,138.56406460551017 336,147.8016689125442 336,166.2768775266122 352,175.51448183364624" id="hexagon-105"></polygon><polygon class="hexagons-background__hexagon hexagons-background__hexagon--8" points="336,203.2272947547483 352,193.98969044771428 352,175.51448183364624 336,166.27687752661222 320,175.51448183364624 320,193.98969044771425 336,203.2272947547483" id="hexagon-106"></polygon><polygon class="hexagons-background__hexagon hexagons-background__hexagon--8" points="352,230.94010767585033 368,221.7025033688163 368,203.22729475474827 352,193.98969044771425 336,203.22729475474827 336,221.70250336881628 352,230.94010767585033" id="hexagon-107"></polygon><polygon class="hexagons-background__hexagon hexagons-background__hexagon--8" points="336,258.65292059695236 352,249.41531628991834 352,230.9401076758503 336,221.70250336881628 320,230.9401076758503 320,249.4153162899183 336,258.65292059695236" id="hexagon-108"></polygon><polygon class="hexagons-background__hexagon hexagons-background__hexagon--5" points="352,286.36573351805436 368,277.12812921102034 368,258.6529205969523 352,249.41531628991828 336,258.6529205969523 336,277.12812921102034 352,286.36573351805436" id="hexagon-109"></polygon><polygon class="hexagons-background__hexagon hexagons-background__hexagon--1" points="368,36.950417228136054 384,27.712812921102042 384,9.237604307034017 368,0 352,9.237604307034005 352,27.712812921102028 368,36.950417228136054" id="hexagon-110"></polygon><polygon class="hexagons-background__hexagon hexagons-background__hexagon--4" points="384,64.66323014923809 400,55.425625842204084 400,36.950417228136054 384,27.71281292110204 368,36.95041722813605 368,55.42562584220407 384,64.66323014923809" id="hexagon-111"></polygon><polygon class="hexagons-background__hexagon hexagons-background__hexagon--9" points="368,92.37604307034012 384,83.13843876330611 384,64.66323014923809 368,55.42562584220407 352,64.66323014923807 352,83.1384387633061 368,92.37604307034012" id="hexagon-112"></polygon><polygon class="hexagons-background__hexagon hexagons-background__hexagon--8" points="384,120.08885599144216 400,110.85125168440815 400,92.37604307034013 384,83.13843876330611 368,92.37604307034012 368,110.85125168440814 384,120.08885599144216" id="hexagon-113"></polygon><polygon class="hexagons-background__hexagon hexagons-background__hexagon--4" points="368,147.80166891254422 384,138.5640646055102 384,120.08885599144217 368,110.85125168440815 352,120.08885599144216 352,138.56406460551017 368,147.80166891254422" id="hexagon-114"></polygon><polygon class="hexagons-background__hexagon hexagons-background__hexagon--8" points="384,175.51448183364624 400,166.27687752661222 400,147.8016689125442 384,138.56406460551017 368,147.8016689125442 368,166.2768775266122 384,175.51448183364624" id="hexagon-115"></polygon><polygon class="hexagons-background__hexagon hexagons-background__hexagon--8" points="368,203.2272947547483 384,193.98969044771428 384,175.51448183364624 368,166.27687752661222 352,175.51448183364624 352,193.98969044771425 368,203.2272947547483" id="hexagon-116"></polygon><polygon class="hexagons-background__hexagon hexagons-background__hexagon--2" points="384,230.94010767585033 400,221.7025033688163 400,203.22729475474827 384,193.98969044771425 368,203.22729475474827 368,221.70250336881628 384,230.94010767585033" id="hexagon-117"></polygon><polygon class="hexagons-background__hexagon hexagons-background__hexagon--10" points="368,258.65292059695236 384,249.41531628991834 384,230.9401076758503 368,221.70250336881628 352,230.9401076758503 352,249.4153162899183 368,258.65292059695236" id="hexagon-118"></polygon><polygon class="hexagons-background__hexagon hexagons-background__hexagon--8" points="384,286.36573351805436 400,277.12812921102034 400,258.6529205969523 384,249.41531628991828 368,258.6529205969523 368,277.12812921102034 384,286.36573351805436" id="hexagon-119"></polygon><polygon class="hexagons-background__hexagon hexagons-background__hexagon--6" points="400,36.950417228136054 416,27.712812921102042 416,9.237604307034017 400,0 384,9.237604307034005 384,27.712812921102028 400,36.950417228136054" id="hexagon-120"></polygon><polygon class="hexagons-background__hexagon hexagons-background__hexagon--10" points="416,64.66323014923809 432,55.425625842204084 432,36.950417228136054 416,27.71281292110204 400,36.95041722813605 400,55.42562584220407 416,64.66323014923809" id="hexagon-121"></polygon><polygon class="hexagons-background__hexagon hexagons-background__hexagon--5" points="400,92.37604307034012 416,83.13843876330611 416,64.66323014923809 400,55.42562584220407 384,64.66323014923807 384,83.1384387633061 400,92.37604307034012" id="hexagon-122"></polygon><polygon class="hexagons-background__hexagon hexagons-background__hexagon--2" points="416,120.08885599144216 432,110.85125168440815 432,92.37604307034013 416,83.13843876330611 400,92.37604307034012 400,110.85125168440814 416,120.08885599144216" id="hexagon-123"></polygon><polygon class="hexagons-background__hexagon hexagons-background__hexagon--10" points="400,147.80166891254422 416,138.5640646055102 416,120.08885599144217 400,110.85125168440815 384,120.08885599144216 384,138.56406460551017 400,147.80166891254422" id="hexagon-124"></polygon><polygon class="hexagons-background__hexagon hexagons-background__hexagon--8" points="416,175.51448183364624 432,166.27687752661222 432,147.8016689125442 416,138.56406460551017 400,147.8016689125442 400,166.2768775266122 416,175.51448183364624" id="hexagon-125"></polygon><polygon class="hexagons-background__hexagon hexagons-background__hexagon--3" points="400,203.2272947547483 416,193.98969044771428 416,175.51448183364624 400,166.27687752661222 384,175.51448183364624 384,193.98969044771425 400,203.2272947547483" id="hexagon-126"></polygon><polygon class="hexagons-background__hexagon hexagons-background__hexagon--8" points="416,230.94010767585033 432,221.7025033688163 432,203.22729475474827 416,193.98969044771425 400,203.22729475474827 400,221.70250336881628 416,230.94010767585033" id="hexagon-127"></polygon><polygon class="hexagons-background__hexagon hexagons-background__hexagon--4" points="400,258.65292059695236 416,249.41531628991834 416,230.9401076758503 400,221.70250336881628 384,230.9401076758503 384,249.4153162899183 400,258.65292059695236" id="hexagon-128"></polygon><polygon class="hexagons-background__hexagon hexagons-background__hexagon--2" points="416,286.36573351805436 432,277.12812921102034 432,258.6529205969523 416,249.41531628991828 400,258.6529205969523 400,277.12812921102034 416,286.36573351805436" id="hexagon-129"></polygon><polygon class="hexagons-background__hexagon hexagons-background__hexagon--6" points="432,36.950417228136054 448,27.712812921102042 448,9.237604307034017 432,0 416,9.237604307034005 416,27.712812921102028 432,36.950417228136054" id="hexagon-130"></polygon><polygon class="hexagons-background__hexagon hexagons-background__hexagon--2" points="448,64.66323014923809 464,55.425625842204084 464,36.950417228136054 448,27.71281292110204 432,36.95041722813605 432,55.42562584220407 448,64.66323014923809" id="hexagon-131"></polygon><polygon class="hexagons-background__hexagon hexagons-background__hexagon--6" points="432,92.37604307034012 448,83.13843876330611 448,64.66323014923809 432,55.42562584220407 416,64.66323014923807 416,83.1384387633061 432,92.37604307034012" id="hexagon-132"></polygon><polygon class="hexagons-background__hexagon hexagons-background__hexagon--5" points="448,120.08885599144216 464,110.85125168440815 464,92.37604307034013 448,83.13843876330611 432,92.37604307034012 432,110.85125168440814 448,120.08885599144216" id="hexagon-133"></polygon><polygon class="hexagons-background__hexagon hexagons-background__hexagon--8" points="432,147.80166891254422 448,138.5640646055102 448,120.08885599144217 432,110.85125168440815 416,120.08885599144216 416,138.56406460551017 432,147.80166891254422" id="hexagon-134"></polygon><polygon class="hexagons-background__hexagon hexagons-background__hexagon--7" points="448,175.51448183364624 464,166.27687752661222 464,147.8016689125442 448,138.56406460551017 432,147.8016689125442 432,166.2768775266122 448,175.51448183364624" id="hexagon-135"></polygon><polygon class="hexagons-background__hexagon hexagons-background__hexagon--3" points="432,203.2272947547483 448,193.98969044771428 448,175.51448183364624 432,166.27687752661222 416,175.51448183364624 416,193.98969044771425 432,203.2272947547483" id="hexagon-136"></polygon><polygon class="hexagons-background__hexagon hexagons-background__hexagon--5" points="448,230.94010767585033 464,221.7025033688163 464,203.22729475474827 448,193.98969044771425 432,203.22729475474827 432,221.70250336881628 448,230.94010767585033" id="hexagon-137"></polygon><polygon class="hexagons-background__hexagon hexagons-background__hexagon--9" points="432,258.65292059695236 448,249.41531628991834 448,230.9401076758503 432,221.70250336881628 416,230.9401076758503 416,249.4153162899183 432,258.65292059695236" id="hexagon-138"></polygon><polygon class="hexagons-background__hexagon hexagons-background__hexagon--5" points="448,286.36573351805436 464,277.12812921102034 464,258.6529205969523 448,249.41531628991828 432,258.6529205969523 432,277.12812921102034 448,286.36573351805436" id="hexagon-139"></polygon><polygon class="hexagons-background__hexagon hexagons-background__hexagon--6" points="464,36.950417228136054 480,27.712812921102042 480,9.237604307034017 464,0 448,9.237604307034005 448,27.712812921102028 464,36.950417228136054" id="hexagon-140"></polygon><polygon class="hexagons-background__hexagon hexagons-background__hexagon--1" points="480,64.66323014923809 496,55.425625842204084 496,36.950417228136054 480,27.71281292110204 464,36.95041722813605 464,55.42562584220407 480,64.66323014923809" id="hexagon-141"></polygon><polygon class="hexagons-background__hexagon hexagons-background__hexagon--1" points="464,92.37604307034012 480,83.13843876330611 480,64.66323014923809 464,55.42562584220407 448,64.66323014923807 448,83.1384387633061 464,92.37604307034012" id="hexagon-142"></polygon><polygon class="hexagons-background__hexagon hexagons-background__hexagon--3" points="480,120.08885599144216 496,110.85125168440815 496,92.37604307034013 480,83.13843876330611 464,92.37604307034012 464,110.85125168440814 480,120.08885599144216" id="hexagon-143"></polygon><polygon class="hexagons-background__hexagon hexagons-background__hexagon--2" points="464,147.80166891254422 480,138.5640646055102 480,120.08885599144217 464,110.85125168440815 448,120.08885599144216 448,138.56406460551017 464,147.80166891254422" id="hexagon-144"></polygon><polygon class="hexagons-background__hexagon hexagons-background__hexagon--3" points="480,175.51448183364624 496,166.27687752661222 496,147.8016689125442 480,138.56406460551017 464,147.8016689125442 464,166.2768775266122 480,175.51448183364624" id="hexagon-145"></polygon><polygon class="hexagons-background__hexagon hexagons-background__hexagon--3" points="464,203.2272947547483 480,193.98969044771428 480,175.51448183364624 464,166.27687752661222 448,175.51448183364624 448,193.98969044771425 464,203.2272947547483" id="hexagon-146"></polygon><polygon class="hexagons-background__hexagon hexagons-background__hexagon--4" points="480,230.94010767585033 496,221.7025033688163 496,203.22729475474827 480,193.98969044771425 464,203.22729475474827 464,221.70250336881628 480,230.94010767585033" id="hexagon-147"></polygon><polygon class="hexagons-background__hexagon hexagons-background__hexagon--6" points="464,258.65292059695236 480,249.41531628991834 480,230.9401076758503 464,221.70250336881628 448,230.9401076758503 448,249.4153162899183 464,258.65292059695236" id="hexagon-148"></polygon><polygon class="hexagons-background__hexagon hexagons-background__hexagon--10" points="480,286.36573351805436 496,277.12812921102034 496,258.6529205969523 480,249.41531628991828 464,258.6529205969523 464,277.12812921102034 480,286.36573351805436" id="hexagon-149"></polygon><polygon class="hexagons-background__hexagon hexagons-background__hexagon--9" points="496,36.950417228136054 512,27.712812921102042 512,9.237604307034017 496,0 480,9.237604307034005 480,27.712812921102028 496,36.950417228136054" id="hexagon-150"></polygon><polygon class="hexagons-background__hexagon hexagons-background__hexagon--10" points="512,64.66323014923809 528,55.425625842204084 528,36.950417228136054 512,27.71281292110204 496,36.95041722813605 496,55.42562584220407 512,64.66323014923809" id="hexagon-151"></polygon><polygon class="hexagons-background__hexagon hexagons-background__hexagon--8" points="496,92.37604307034012 512,83.13843876330611 512,64.66323014923809 496,55.42562584220407 480,64.66323014923807 480,83.1384387633061 496,92.37604307034012" id="hexagon-152"></polygon><polygon class="hexagons-background__hexagon hexagons-background__hexagon--10" points="512,120.08885599144216 528,110.85125168440815 528,92.37604307034013 512,83.13843876330611 496,92.37604307034012 496,110.85125168440814 512,120.08885599144216" id="hexagon-153"></polygon><polygon class="hexagons-background__hexagon hexagons-background__hexagon--3" points="496,147.80166891254422 512,138.5640646055102 512,120.08885599144217 496,110.85125168440815 480,120.08885599144216 480,138.56406460551017 496,147.80166891254422" id="hexagon-154"></polygon><polygon class="hexagons-background__hexagon hexagons-background__hexagon--10" points="512,175.51448183364624 528,166.27687752661222 528,147.8016689125442 512,138.56406460551017 496,147.8016689125442 496,166.2768775266122 512,175.51448183364624" id="hexagon-155"></polygon><polygon class="hexagons-background__hexagon hexagons-background__hexagon--5" points="496,203.2272947547483 512,193.98969044771428 512,175.51448183364624 496,166.27687752661222 480,175.51448183364624 480,193.98969044771425 496,203.2272947547483" id="hexagon-156"></polygon><polygon class="hexagons-background__hexagon hexagons-background__hexagon--6" points="512,230.94010767585033 528,221.7025033688163 528,203.22729475474827 512,193.98969044771425 496,203.22729475474827 496,221.70250336881628 512,230.94010767585033" id="hexagon-157"></polygon><polygon class="hexagons-background__hexagon hexagons-background__hexagon--3" points="496,258.65292059695236 512,249.41531628991834 512,230.9401076758503 496,221.70250336881628 480,230.9401076758503 480,249.4153162899183 496,258.65292059695236" id="hexagon-158"></polygon><polygon class="hexagons-background__hexagon hexagons-background__hexagon--8" points="512,286.36573351805436 528,277.12812921102034 528,258.6529205969523 512,249.41531628991828 496,258.6529205969523 496,277.12812921102034 512,286.36573351805436" id="hexagon-159"></polygon><polygon class="hexagons-background__hexagon hexagons-background__hexagon--10" points="528,36.950417228136054 544,27.712812921102042 544,9.237604307034017 528,0 512,9.237604307034005 512,27.712812921102028 528,36.950417228136054" id="hexagon-160"></polygon><polygon class="hexagons-background__hexagon hexagons-background__hexagon--2" points="544,64.66323014923809 560,55.425625842204084 560,36.950417228136054 544,27.71281292110204 528,36.95041722813605 528,55.42562584220407 544,64.66323014923809" id="hexagon-161"></polygon><polygon class="hexagons-background__hexagon hexagons-background__hexagon--9" points="528,92.37604307034012 544,83.13843876330611 544,64.66323014923809 528,55.42562584220407 512,64.66323014923807 512,83.1384387633061 528,92.37604307034012" id="hexagon-162"></polygon><polygon class="hexagons-background__hexagon hexagons-background__hexagon--4" points="544,120.08885599144216 560,110.85125168440815 560,92.37604307034013 544,83.13843876330611 528,92.37604307034012 528,110.85125168440814 544,120.08885599144216" id="hexagon-163"></polygon><polygon class="hexagons-background__hexagon hexagons-background__hexagon--5" points="528,147.80166891254422 544,138.5640646055102 544,120.08885599144217 528,110.85125168440815 512,120.08885599144216 512,138.56406460551017 528,147.80166891254422" id="hexagon-164"></polygon><polygon class="hexagons-background__hexagon hexagons-background__hexagon--10" points="544,175.51448183364624 560,166.27687752661222 560,147.8016689125442 544,138.56406460551017 528,147.8016689125442 528,166.2768775266122 544,175.51448183364624" id="hexagon-165"></polygon><polygon class="hexagons-background__hexagon hexagons-background__hexagon--9" points="528,203.2272947547483 544,193.98969044771428 544,175.51448183364624 528,166.27687752661222 512,175.51448183364624 512,193.98969044771425 528,203.2272947547483" id="hexagon-166"></polygon><polygon class="hexagons-background__hexagon hexagons-background__hexagon--3" points="544,230.94010767585033 560,221.7025033688163 560,203.22729475474827 544,193.98969044771425 528,203.22729475474827 528,221.70250336881628 544,230.94010767585033" id="hexagon-167"></polygon><polygon class="hexagons-background__hexagon hexagons-background__hexagon--3" points="528,258.65292059695236 544,249.41531628991834 544,230.9401076758503 528,221.70250336881628 512,230.9401076758503 512,249.4153162899183 528,258.65292059695236" id="hexagon-168"></polygon><polygon class="hexagons-background__hexagon hexagons-background__hexagon--9" points="544,286.36573351805436 560,277.12812921102034 560,258.6529205969523 544,249.41531628991828 528,258.6529205969523 528,277.12812921102034 544,286.36573351805436" id="hexagon-169"></polygon><polygon class="hexagons-background__hexagon hexagons-background__hexagon--6" points="560,36.950417228136054 576,27.712812921102042 576,9.237604307034017 560,0 544,9.237604307034005 544,27.712812921102028 560,36.950417228136054" id="hexagon-170"></polygon><polygon class="hexagons-background__hexagon hexagons-background__hexagon--2" points="576,64.66323014923809 592,55.425625842204084 592,36.950417228136054 576,27.71281292110204 560,36.95041722813605 560,55.42562584220407 576,64.66323014923809" id="hexagon-171"></polygon><polygon class="hexagons-background__hexagon hexagons-background__hexagon--2" points="560,92.37604307034012 576,83.13843876330611 576,64.66323014923809 560,55.42562584220407 544,64.66323014923807 544,83.1384387633061 560,92.37604307034012" id="hexagon-172"></polygon><polygon class="hexagons-background__hexagon hexagons-background__hexagon--1" points="576,120.08885599144216 592,110.85125168440815 592,92.37604307034013 576,83.13843876330611 560,92.37604307034012 560,110.85125168440814 576,120.08885599144216" id="hexagon-173"></polygon><polygon class="hexagons-background__hexagon hexagons-background__hexagon--4" points="560,147.80166891254422 576,138.5640646055102 576,120.08885599144217 560,110.85125168440815 544,120.08885599144216 544,138.56406460551017 560,147.80166891254422" id="hexagon-174"></polygon><polygon class="hexagons-background__hexagon hexagons-background__hexagon--1" points="576,175.51448183364624 592,166.27687752661222 592,147.8016689125442 576,138.56406460551017 560,147.8016689125442 560,166.2768775266122 576,175.51448183364624" id="hexagon-175"></polygon><polygon class="hexagons-background__hexagon hexagons-background__hexagon--7" points="560,203.2272947547483 576,193.98969044771428 576,175.51448183364624 560,166.27687752661222 544,175.51448183364624 544,193.98969044771425 560,203.2272947547483" id="hexagon-176"></polygon><polygon class="hexagons-background__hexagon hexagons-background__hexagon--6" points="576,230.94010767585033 592,221.7025033688163 592,203.22729475474827 576,193.98969044771425 560,203.22729475474827 560,221.70250336881628 576,230.94010767585033" id="hexagon-177"></polygon><polygon class="hexagons-background__hexagon hexagons-background__hexagon--8" points="560,258.65292059695236 576,249.41531628991834 576,230.9401076758503 560,221.70250336881628 544,230.9401076758503 544,249.4153162899183 560,258.65292059695236" id="hexagon-178"></polygon><polygon class="hexagons-background__hexagon hexagons-background__hexagon--10" points="576,286.36573351805436 592,277.12812921102034 592,258.6529205969523 576,249.41531628991828 560,258.6529205969523 560,277.12812921102034 576,286.36573351805436" id="hexagon-179"></polygon><polygon class="hexagons-background__hexagon hexagons-background__hexagon--1" points="592,36.950417228136054 608,27.712812921102042 608,9.237604307034017 592,0 576,9.237604307034005 576,27.712812921102028 592,36.950417228136054" id="hexagon-180"></polygon><polygon class="hexagons-background__hexagon hexagons-background__hexagon--9" points="608,64.66323014923809 624,55.425625842204084 624,36.950417228136054 608,27.71281292110204 592,36.95041722813605 592,55.42562584220407 608,64.66323014923809" id="hexagon-181"></polygon><polygon class="hexagons-background__hexagon hexagons-background__hexagon--10" points="592,92.37604307034012 608,83.13843876330611 608,64.66323014923809 592,55.42562584220407 576,64.66323014923807 576,83.1384387633061 592,92.37604307034012" id="hexagon-182"></polygon><polygon class="hexagons-background__hexagon hexagons-background__hexagon--2" points="608,120.08885599144216 624,110.85125168440815 624,92.37604307034013 608,83.13843876330611 592,92.37604307034012 592,110.85125168440814 608,120.08885599144216" id="hexagon-183"></polygon><polygon class="hexagons-background__hexagon hexagons-background__hexagon--4" points="592,147.80166891254422 608,138.5640646055102 608,120.08885599144217 592,110.85125168440815 576,120.08885599144216 576,138.56406460551017 592,147.80166891254422" id="hexagon-184"></polygon><polygon class="hexagons-background__hexagon hexagons-background__hexagon--9" points="608,175.51448183364624 624,166.27687752661222 624,147.8016689125442 608,138.56406460551017 592,147.8016689125442 592,166.2768775266122 608,175.51448183364624" id="hexagon-185"></polygon><polygon class="hexagons-background__hexagon hexagons-background__hexagon--7" points="592,203.2272947547483 608,193.98969044771428 608,175.51448183364624 592,166.27687752661222 576,175.51448183364624 576,193.98969044771425 592,203.2272947547483" id="hexagon-186"></polygon><polygon class="hexagons-background__hexagon hexagons-background__hexagon--3" points="608,230.94010767585033 624,221.7025033688163 624,203.22729475474827 608,193.98969044771425 592,203.22729475474827 592,221.70250336881628 608,230.94010767585033" id="hexagon-187"></polygon><polygon class="hexagons-background__hexagon hexagons-background__hexagon--1" points="592,258.65292059695236 608,249.41531628991834 608,230.9401076758503 592,221.70250336881628 576,230.9401076758503 576,249.4153162899183 592,258.65292059695236" id="hexagon-188"></polygon><polygon class="hexagons-background__hexagon hexagons-background__hexagon--10" points="608,286.36573351805436 624,277.12812921102034 624,258.6529205969523 608,249.41531628991828 592,258.6529205969523 592,277.12812921102034 608,286.36573351805436" id="hexagon-189"></polygon><polygon class="hexagons-background__hexagon hexagons-background__hexagon--9" points="624,36.950417228136054 640,27.712812921102042 640,9.237604307034017 624,0 608,9.237604307034005 608,27.712812921102028 624,36.950417228136054" id="hexagon-190"></polygon><polygon class="hexagons-background__hexagon hexagons-background__hexagon--6" points="640,64.66323014923809 656,55.425625842204084 656,36.950417228136054 640,27.71281292110204 624,36.95041722813605 624,55.42562584220407 640,64.66323014923809" id="hexagon-191"></polygon><polygon class="hexagons-background__hexagon hexagons-background__hexagon--4" points="624,92.37604307034012 640,83.13843876330611 640,64.66323014923809 624,55.42562584220407 608,64.66323014923807 608,83.1384387633061 624,92.37604307034012" id="hexagon-192"></polygon><polygon class="hexagons-background__hexagon hexagons-background__hexagon--1" points="640,120.08885599144216 656,110.85125168440815 656,92.37604307034013 640,83.13843876330611 624,92.37604307034012 624,110.85125168440814 640,120.08885599144216" id="hexagon-193"></polygon><polygon class="hexagons-background__hexagon hexagons-background__hexagon--3" points="624,147.80166891254422 640,138.5640646055102 640,120.08885599144217 624,110.85125168440815 608,120.08885599144216 608,138.56406460551017 624,147.80166891254422" id="hexagon-194"></polygon><polygon class="hexagons-background__hexagon hexagons-background__hexagon--9" points="640,175.51448183364624 656,166.27687752661222 656,147.8016689125442 640,138.56406460551017 624,147.8016689125442 624,166.2768775266122 640,175.51448183364624" id="hexagon-195"></polygon><polygon class="hexagons-background__hexagon hexagons-background__hexagon--3" points="624,203.2272947547483 640,193.98969044771428 640,175.51448183364624 624,166.27687752661222 608,175.51448183364624 608,193.98969044771425 624,203.2272947547483" id="hexagon-196"></polygon><polygon class="hexagons-background__hexagon hexagons-background__hexagon--9" points="640,230.94010767585033 656,221.7025033688163 656,203.22729475474827 640,193.98969044771425 624,203.22729475474827 624,221.70250336881628 640,230.94010767585033" id="hexagon-197"></polygon><polygon class="hexagons-background__hexagon hexagons-background__hexagon--4" points="624,258.65292059695236 640,249.41531628991834 640,230.9401076758503 624,221.70250336881628 608,230.9401076758503 608,249.4153162899183 624,258.65292059695236" id="hexagon-198"></polygon><polygon class="hexagons-background__hexagon hexagons-background__hexagon--9" points="640,286.36573351805436 656,277.12812921102034 656,258.6529205969523 640,249.41531628991828 624,258.6529205969523 624,277.12812921102034 640,286.36573351805436" id="hexagon-199"></polygon><polygon class="hexagons-background__hexagon hexagons-background__hexagon--9" points="656,36.950417228136054 672,27.712812921102042 672,9.237604307034017 656,0 640,9.237604307034005 640,27.712812921102028 656,36.950417228136054" id="hexagon-200"></polygon><polygon class="hexagons-background__hexagon hexagons-background__hexagon--4" points="672,64.66323014923809 688,55.425625842204084 688,36.950417228136054 672,27.71281292110204 656,36.95041722813605 656,55.42562584220407 672,64.66323014923809" id="hexagon-201"></polygon><polygon class="hexagons-background__hexagon hexagons-background__hexagon--8" points="656,92.37604307034012 672,83.13843876330611 672,64.66323014923809 656,55.42562584220407 640,64.66323014923807 640,83.1384387633061 656,92.37604307034012" id="hexagon-202"></polygon><polygon class="hexagons-background__hexagon hexagons-background__hexagon--1" points="672,120.08885599144216 688,110.85125168440815 688,92.37604307034013 672,83.13843876330611 656,92.37604307034012 656,110.85125168440814 672,120.08885599144216" id="hexagon-203"></polygon><polygon class="hexagons-background__hexagon hexagons-background__hexagon--6" points="656,147.80166891254422 672,138.5640646055102 672,120.08885599144217 656,110.85125168440815 640,120.08885599144216 640,138.56406460551017 656,147.80166891254422" id="hexagon-204"></polygon><polygon class="hexagons-background__hexagon hexagons-background__hexagon--6" points="672,175.51448183364624 688,166.27687752661222 688,147.8016689125442 672,138.56406460551017 656,147.8016689125442 656,166.2768775266122 672,175.51448183364624" id="hexagon-205"></polygon><polygon class="hexagons-background__hexagon hexagons-background__hexagon--5" points="656,203.2272947547483 672,193.98969044771428 672,175.51448183364624 656,166.27687752661222 640,175.51448183364624 640,193.98969044771425 656,203.2272947547483" id="hexagon-206"></polygon><polygon class="hexagons-background__hexagon hexagons-background__hexagon--2" points="672,230.94010767585033 688,221.7025033688163 688,203.22729475474827 672,193.98969044771425 656,203.22729475474827 656,221.70250336881628 672,230.94010767585033" id="hexagon-207"></polygon><polygon class="hexagons-background__hexagon hexagons-background__hexagon--2" points="656,258.65292059695236 672,249.41531628991834 672,230.9401076758503 656,221.70250336881628 640,230.9401076758503 640,249.4153162899183 656,258.65292059695236" id="hexagon-208"></polygon><polygon class="hexagons-background__hexagon hexagons-background__hexagon--7" points="672,286.36573351805436 688,277.12812921102034 688,258.6529205969523 672,249.41531628991828 656,258.6529205969523 656,277.12812921102034 672,286.36573351805436" id="hexagon-209"></polygon><polygon class="hexagons-background__hexagon hexagons-background__hexagon--7" points="688,36.950417228136054 704,27.712812921102042 704,9.237604307034017 688,0 672,9.237604307034005 672,27.712812921102028 688,36.950417228136054" id="hexagon-210"></polygon><polygon class="hexagons-background__hexagon hexagons-background__hexagon--6" points="704,64.66323014923809 720,55.425625842204084 720,36.950417228136054 704,27.71281292110204 688,36.95041722813605 688,55.42562584220407 704,64.66323014923809" id="hexagon-211"></polygon><polygon class="hexagons-background__hexagon hexagons-background__hexagon--7" points="688,92.37604307034012 704,83.13843876330611 704,64.66323014923809 688,55.42562584220407 672,64.66323014923807 672,83.1384387633061 688,92.37604307034012" id="hexagon-212"></polygon><polygon class="hexagons-background__hexagon hexagons-background__hexagon--10" points="704,120.08885599144216 720,110.85125168440815 720,92.37604307034013 704,83.13843876330611 688,92.37604307034012 688,110.85125168440814 704,120.08885599144216" id="hexagon-213"></polygon><polygon class="hexagons-background__hexagon hexagons-background__hexagon--3" points="688,147.80166891254422 704,138.5640646055102 704,120.08885599144217 688,110.85125168440815 672,120.08885599144216 672,138.56406460551017 688,147.80166891254422" id="hexagon-214"></polygon><polygon class="hexagons-background__hexagon hexagons-background__hexagon--6" points="704,175.51448183364624 720,166.27687752661222 720,147.8016689125442 704,138.56406460551017 688,147.8016689125442 688,166.2768775266122 704,175.51448183364624" id="hexagon-215"></polygon><polygon class="hexagons-background__hexagon hexagons-background__hexagon--9" points="688,203.2272947547483 704,193.98969044771428 704,175.51448183364624 688,166.27687752661222 672,175.51448183364624 672,193.98969044771425 688,203.2272947547483" id="hexagon-216"></polygon><polygon class="hexagons-background__hexagon hexagons-background__hexagon--5" points="704,230.94010767585033 720,221.7025033688163 720,203.22729475474827 704,193.98969044771425 688,203.22729475474827 688,221.70250336881628 704,230.94010767585033" id="hexagon-217"></polygon><polygon class="hexagons-background__hexagon hexagons-background__hexagon--4" points="688,258.65292059695236 704,249.41531628991834 704,230.9401076758503 688,221.70250336881628 672,230.9401076758503 672,249.4153162899183 688,258.65292059695236" id="hexagon-218"></polygon><polygon class="hexagons-background__hexagon hexagons-background__hexagon--5" points="704,286.36573351805436 720,277.12812921102034 720,258.6529205969523 704,249.41531628991828 688,258.6529205969523 688,277.12812921102034 704,286.36573351805436" id="hexagon-219"></polygon><polygon class="hexagons-background__hexagon hexagons-background__hexagon--7" points="720,36.950417228136054 736,27.712812921102042 736,9.237604307034017 720,0 704,9.237604307034005 704,27.712812921102028 720,36.950417228136054" id="hexagon-220"></polygon><polygon class="hexagons-background__hexagon hexagons-background__hexagon--10" points="736,64.66323014923809 752,55.425625842204084 752,36.950417228136054 736,27.71281292110204 720,36.95041722813605 720,55.42562584220407 736,64.66323014923809" id="hexagon-221"></polygon><polygon class="hexagons-background__hexagon hexagons-background__hexagon--8" points="720,92.37604307034012 736,83.13843876330611 736,64.66323014923809 720,55.42562584220407 704,64.66323014923807 704,83.1384387633061 720,92.37604307034012" id="hexagon-222"></polygon><polygon class="hexagons-background__hexagon hexagons-background__hexagon--3" points="736,120.08885599144216 752,110.85125168440815 752,92.37604307034013 736,83.13843876330611 720,92.37604307034012 720,110.85125168440814 736,120.08885599144216" id="hexagon-223"></polygon><polygon class="hexagons-background__hexagon hexagons-background__hexagon--7" points="720,147.80166891254422 736,138.5640646055102 736,120.08885599144217 720,110.85125168440815 704,120.08885599144216 704,138.56406460551017 720,147.80166891254422" id="hexagon-224"></polygon><polygon class="hexagons-background__hexagon hexagons-background__hexagon--10" points="736,175.51448183364624 752,166.27687752661222 752,147.8016689125442 736,138.56406460551017 720,147.8016689125442 720,166.2768775266122 736,175.51448183364624" id="hexagon-225"></polygon><polygon class="hexagons-background__hexagon hexagons-background__hexagon--6" points="720,203.2272947547483 736,193.98969044771428 736,175.51448183364624 720,166.27687752661222 704,175.51448183364624 704,193.98969044771425 720,203.2272947547483" id="hexagon-226"></polygon><polygon class="hexagons-background__hexagon hexagons-background__hexagon--9" points="736,230.94010767585033 752,221.7025033688163 752,203.22729475474827 736,193.98969044771425 720,203.22729475474827 720,221.70250336881628 736,230.94010767585033" id="hexagon-227"></polygon><polygon class="hexagons-background__hexagon hexagons-background__hexagon--4" points="720,258.65292059695236 736,249.41531628991834 736,230.9401076758503 720,221.70250336881628 704,230.9401076758503 704,249.4153162899183 720,258.65292059695236" id="hexagon-228"></polygon><polygon class="hexagons-background__hexagon hexagons-background__hexagon--8" points="736,286.36573351805436 752,277.12812921102034 752,258.6529205969523 736,249.41531628991828 720,258.6529205969523 720,277.12812921102034 736,286.36573351805436" id="hexagon-229"></polygon><polygon class="hexagons-background__hexagon hexagons-background__hexagon--4" points="752,36.950417228136054 768,27.712812921102042 768,9.237604307034017 752,0 736,9.237604307034005 736,27.712812921102028 752,36.950417228136054" id="hexagon-230"></polygon><polygon class="hexagons-background__hexagon hexagons-background__hexagon--10" points="768,64.66323014923809 784,55.425625842204084 784,36.950417228136054 768,27.71281292110204 752,36.95041722813605 752,55.42562584220407 768,64.66323014923809" id="hexagon-231"></polygon><polygon class="hexagons-background__hexagon hexagons-background__hexagon--8" points="752,92.37604307034012 768,83.13843876330611 768,64.66323014923809 752,55.42562584220407 736,64.66323014923807 736,83.1384387633061 752,92.37604307034012" id="hexagon-232"></polygon><polygon class="hexagons-background__hexagon hexagons-background__hexagon--9" points="768,120.08885599144216 784,110.85125168440815 784,92.37604307034013 768,83.13843876330611 752,92.37604307034012 752,110.85125168440814 768,120.08885599144216" id="hexagon-233"></polygon><polygon class="hexagons-background__hexagon hexagons-background__hexagon--9" points="752,147.80166891254422 768,138.5640646055102 768,120.08885599144217 752,110.85125168440815 736,120.08885599144216 736,138.56406460551017 752,147.80166891254422" id="hexagon-234"></polygon><polygon class="hexagons-background__hexagon hexagons-background__hexagon--10" points="768,175.51448183364624 784,166.27687752661222 784,147.8016689125442 768,138.56406460551017 752,147.8016689125442 752,166.2768775266122 768,175.51448183364624" id="hexagon-235"></polygon><polygon class="hexagons-background__hexagon hexagons-background__hexagon--6" points="752,203.2272947547483 768,193.98969044771428 768,175.51448183364624 752,166.27687752661222 736,175.51448183364624 736,193.98969044771425 752,203.2272947547483" id="hexagon-236"></polygon><polygon class="hexagons-background__hexagon hexagons-background__hexagon--1" points="768,230.94010767585033 784,221.7025033688163 784,203.22729475474827 768,193.98969044771425 752,203.22729475474827 752,221.70250336881628 768,230.94010767585033" id="hexagon-237"></polygon><polygon class="hexagons-background__hexagon hexagons-background__hexagon--9" points="752,258.65292059695236 768,249.41531628991834 768,230.9401076758503 752,221.70250336881628 736,230.9401076758503 736,249.4153162899183 752,258.65292059695236" id="hexagon-238"></polygon><polygon class="hexagons-background__hexagon hexagons-background__hexagon--8" points="768,286.36573351805436 784,277.12812921102034 784,258.6529205969523 768,249.41531628991828 752,258.6529205969523 752,277.12812921102034 768,286.36573351805436" id="hexagon-239"></polygon><polygon class="hexagons-background__hexagon hexagons-background__hexagon--1" points="784,36.950417228136054 800,27.712812921102042 800,9.237604307034017 784,0 768,9.237604307034005 768,27.712812921102028 784,36.950417228136054" id="hexagon-240"></polygon><polygon class="hexagons-background__hexagon hexagons-background__hexagon--6" points="800,64.66323014923809 816,55.425625842204084 816,36.950417228136054 800,27.71281292110204 784,36.95041722813605 784,55.42562584220407 800,64.66323014923809" id="hexagon-241"></polygon><polygon class="hexagons-background__hexagon hexagons-background__hexagon--6" points="784,92.37604307034012 800,83.13843876330611 800,64.66323014923809 784,55.42562584220407 768,64.66323014923807 768,83.1384387633061 784,92.37604307034012" id="hexagon-242"></polygon><polygon class="hexagons-background__hexagon hexagons-background__hexagon--10" points="800,120.08885599144216 816,110.85125168440815 816,92.37604307034013 800,83.13843876330611 784,92.37604307034012 784,110.85125168440814 800,120.08885599144216" id="hexagon-243"></polygon><polygon class="hexagons-background__hexagon hexagons-background__hexagon--4" points="784,147.80166891254422 800,138.5640646055102 800,120.08885599144217 784,110.85125168440815 768,120.08885599144216 768,138.56406460551017 784,147.80166891254422" id="hexagon-244"></polygon><polygon class="hexagons-background__hexagon hexagons-background__hexagon--8" points="800,175.51448183364624 816,166.27687752661222 816,147.8016689125442 800,138.56406460551017 784,147.8016689125442 784,166.2768775266122 800,175.51448183364624" id="hexagon-245"></polygon><polygon class="hexagons-background__hexagon hexagons-background__hexagon--6" points="784,203.2272947547483 800,193.98969044771428 800,175.51448183364624 784,166.27687752661222 768,175.51448183364624 768,193.98969044771425 784,203.2272947547483" id="hexagon-246"></polygon><polygon class="hexagons-background__hexagon hexagons-background__hexagon--9" points="800,230.94010767585033 816,221.7025033688163 816,203.22729475474827 800,193.98969044771425 784,203.22729475474827 784,221.70250336881628 800,230.94010767585033" id="hexagon-247"></polygon><polygon class="hexagons-background__hexagon hexagons-background__hexagon--1" points="784,258.65292059695236 800,249.41531628991834 800,230.9401076758503 784,221.70250336881628 768,230.9401076758503 768,249.4153162899183 784,258.65292059695236" id="hexagon-248"></polygon><polygon class="hexagons-background__hexagon hexagons-background__hexagon--6" points="800,286.36573351805436 816,277.12812921102034 816,258.6529205969523 800,249.41531628991828 784,258.6529205969523 784,277.12812921102034 800,286.36573351805436" id="hexagon-249"></polygon><polygon class="hexagons-background__hexagon hexagons-background__hexagon--8" points="816,36.950417228136054 832,27.712812921102042 832,9.237604307034017 816,0 800,9.237604307034005 800,27.712812921102028 816,36.950417228136054" id="hexagon-250"></polygon><polygon class="hexagons-background__hexagon hexagons-background__hexagon--1" points="832,64.66323014923809 848,55.425625842204084 848,36.950417228136054 832,27.71281292110204 816,36.95041722813605 816,55.42562584220407 832,64.66323014923809" id="hexagon-251"></polygon><polygon class="hexagons-background__hexagon hexagons-background__hexagon--3" points="816,92.37604307034012 832,83.13843876330611 832,64.66323014923809 816,55.42562584220407 800,64.66323014923807 800,83.1384387633061 816,92.37604307034012" id="hexagon-252"></polygon><polygon class="hexagons-background__hexagon hexagons-background__hexagon--9" points="832,120.08885599144216 848,110.85125168440815 848,92.37604307034013 832,83.13843876330611 816,92.37604307034012 816,110.85125168440814 832,120.08885599144216" id="hexagon-253"></polygon><polygon class="hexagons-background__hexagon hexagons-background__hexagon--1" points="816,147.80166891254422 832,138.5640646055102 832,120.08885599144217 816,110.85125168440815 800,120.08885599144216 800,138.56406460551017 816,147.80166891254422" id="hexagon-254"></polygon><polygon class="hexagons-background__hexagon hexagons-background__hexagon--9" points="832,175.51448183364624 848,166.27687752661222 848,147.8016689125442 832,138.56406460551017 816,147.8016689125442 816,166.2768775266122 832,175.51448183364624" id="hexagon-255"></polygon><polygon class="hexagons-background__hexagon hexagons-background__hexagon--4" points="816,203.2272947547483 832,193.98969044771428 832,175.51448183364624 816,166.27687752661222 800,175.51448183364624 800,193.98969044771425 816,203.2272947547483" id="hexagon-256"></polygon><polygon class="hexagons-background__hexagon hexagons-background__hexagon--3" points="832,230.94010767585033 848,221.7025033688163 848,203.22729475474827 832,193.98969044771425 816,203.22729475474827 816,221.70250336881628 832,230.94010767585033" id="hexagon-257"></polygon><polygon class="hexagons-background__hexagon hexagons-background__hexagon--10" points="816,258.65292059695236 832,249.41531628991834 832,230.9401076758503 816,221.70250336881628 800,230.9401076758503 800,249.4153162899183 816,258.65292059695236" id="hexagon-258"></polygon><polygon class="hexagons-background__hexagon hexagons-background__hexagon--8" points="832,286.36573351805436 848,277.12812921102034 848,258.6529205969523 832,249.41531628991828 816,258.6529205969523 816,277.12812921102034 832,286.36573351805436" id="hexagon-259"></polygon><polygon class="hexagons-background__hexagon hexagons-background__hexagon--4" points="848,36.950417228136054 864,27.712812921102042 864,9.237604307034017 848,0 832,9.237604307034005 832,27.712812921102028 848,36.950417228136054" id="hexagon-260"></polygon><polygon class="hexagons-background__hexagon hexagons-background__hexagon--10" points="864,64.66323014923809 880,55.425625842204084 880,36.950417228136054 864,27.71281292110204 848,36.95041722813605 848,55.42562584220407 864,64.66323014923809" id="hexagon-261"></polygon><polygon class="hexagons-background__hexagon hexagons-background__hexagon--6" points="848,92.37604307034012 864,83.13843876330611 864,64.66323014923809 848,55.42562584220407 832,64.66323014923807 832,83.1384387633061 848,92.37604307034012" id="hexagon-262"></polygon><polygon class="hexagons-background__hexagon hexagons-background__hexagon--10" points="864,120.08885599144216 880,110.85125168440815 880,92.37604307034013 864,83.13843876330611 848,92.37604307034012 848,110.85125168440814 864,120.08885599144216" id="hexagon-263"></polygon><polygon class="hexagons-background__hexagon hexagons-background__hexagon--8" points="848,147.80166891254422 864,138.5640646055102 864,120.08885599144217 848,110.85125168440815 832,120.08885599144216 832,138.56406460551017 848,147.80166891254422" id="hexagon-264"></polygon><polygon class="hexagons-background__hexagon hexagons-background__hexagon--5" points="864,175.51448183364624 880,166.27687752661222 880,147.8016689125442 864,138.56406460551017 848,147.8016689125442 848,166.2768775266122 864,175.51448183364624" id="hexagon-265"></polygon><polygon class="hexagons-background__hexagon hexagons-background__hexagon--9" points="848,203.2272947547483 864,193.98969044771428 864,175.51448183364624 848,166.27687752661222 832,175.51448183364624 832,193.98969044771425 848,203.2272947547483" id="hexagon-266"></polygon><polygon class="hexagons-background__hexagon hexagons-background__hexagon--3" points="864,230.94010767585033 880,221.7025033688163 880,203.22729475474827 864,193.98969044771425 848,203.22729475474827 848,221.70250336881628 864,230.94010767585033" id="hexagon-267"></polygon><polygon class="hexagons-background__hexagon hexagons-background__hexagon--10" points="848,258.65292059695236 864,249.41531628991834 864,230.9401076758503 848,221.70250336881628 832,230.9401076758503 832,249.4153162899183 848,258.65292059695236" id="hexagon-268"></polygon><polygon class="hexagons-background__hexagon hexagons-background__hexagon--5" points="864,286.36573351805436 880,277.12812921102034 880,258.6529205969523 864,249.41531628991828 848,258.6529205969523 848,277.12812921102034 864,286.36573351805436" id="hexagon-269"></polygon><polygon class="hexagons-background__hexagon hexagons-background__hexagon--9" points="880,36.950417228136054 896,27.712812921102042 896,9.237604307034017 880,0 864,9.237604307034005 864,27.712812921102028 880,36.950417228136054" id="hexagon-270"></polygon><polygon class="hexagons-background__hexagon hexagons-background__hexagon--8" points="896,64.66323014923809 912,55.425625842204084 912,36.950417228136054 896,27.71281292110204 880,36.95041722813605 880,55.42562584220407 896,64.66323014923809" id="hexagon-271"></polygon><polygon class="hexagons-background__hexagon hexagons-background__hexagon--5" points="880,92.37604307034012 896,83.13843876330611 896,64.66323014923809 880,55.42562584220407 864,64.66323014923807 864,83.1384387633061 880,92.37604307034012" id="hexagon-272"></polygon><polygon class="hexagons-background__hexagon hexagons-background__hexagon--7" points="896,120.08885599144216 912,110.85125168440815 912,92.37604307034013 896,83.13843876330611 880,92.37604307034012 880,110.85125168440814 896,120.08885599144216" id="hexagon-273"></polygon><polygon class="hexagons-background__hexagon hexagons-background__hexagon--4" points="880,147.80166891254422 896,138.5640646055102 896,120.08885599144217 880,110.85125168440815 864,120.08885599144216 864,138.56406460551017 880,147.80166891254422" id="hexagon-274"></polygon><polygon class="hexagons-background__hexagon hexagons-background__hexagon--7" points="896,175.51448183364624 912,166.27687752661222 912,147.8016689125442 896,138.56406460551017 880,147.8016689125442 880,166.2768775266122 896,175.51448183364624" id="hexagon-275"></polygon><polygon class="hexagons-background__hexagon hexagons-background__hexagon--8" points="880,203.2272947547483 896,193.98969044771428 896,175.51448183364624 880,166.27687752661222 864,175.51448183364624 864,193.98969044771425 880,203.2272947547483" id="hexagon-276"></polygon><polygon class="hexagons-background__hexagon hexagons-background__hexagon--3" points="896,230.94010767585033 912,221.7025033688163 912,203.22729475474827 896,193.98969044771425 880,203.22729475474827 880,221.70250336881628 896,230.94010767585033" id="hexagon-277"></polygon><polygon class="hexagons-background__hexagon hexagons-background__hexagon--6" points="880,258.65292059695236 896,249.41531628991834 896,230.9401076758503 880,221.70250336881628 864,230.9401076758503 864,249.4153162899183 880,258.65292059695236" id="hexagon-278"></polygon><polygon class="hexagons-background__hexagon hexagons-background__hexagon--5" points="896,286.36573351805436 912,277.12812921102034 912,258.6529205969523 896,249.41531628991828 880,258.6529205969523 880,277.12812921102034 896,286.36573351805436" id="hexagon-279"></polygon><polygon class="hexagons-background__hexagon hexagons-background__hexagon--7" points="912,36.950417228136054 928,27.712812921102042 928,9.237604307034017 912,0 896,9.237604307034005 896,27.712812921102028 912,36.950417228136054" id="hexagon-280"></polygon><polygon class="hexagons-background__hexagon hexagons-background__hexagon--10" points="928,64.66323014923809 944,55.425625842204084 944,36.950417228136054 928,27.71281292110204 912,36.95041722813605 912,55.42562584220407 928,64.66323014923809" id="hexagon-281"></polygon><polygon class="hexagons-background__hexagon hexagons-background__hexagon--4" points="912,92.37604307034012 928,83.13843876330611 928,64.66323014923809 912,55.42562584220407 896,64.66323014923807 896,83.1384387633061 912,92.37604307034012" id="hexagon-282"></polygon><polygon class="hexagons-background__hexagon hexagons-background__hexagon--4" points="928,120.08885599144216 944,110.85125168440815 944,92.37604307034013 928,83.13843876330611 912,92.37604307034012 912,110.85125168440814 928,120.08885599144216" id="hexagon-283"></polygon><polygon class="hexagons-background__hexagon hexagons-background__hexagon--2" points="912,147.80166891254422 928,138.5640646055102 928,120.08885599144217 912,110.85125168440815 896,120.08885599144216 896,138.56406460551017 912,147.80166891254422" id="hexagon-284"></polygon><polygon class="hexagons-background__hexagon hexagons-background__hexagon--5" points="928,175.51448183364624 944,166.27687752661222 944,147.8016689125442 928,138.56406460551017 912,147.8016689125442 912,166.2768775266122 928,175.51448183364624" id="hexagon-285"></polygon><polygon class="hexagons-background__hexagon hexagons-background__hexagon--1" points="912,203.2272947547483 928,193.98969044771428 928,175.51448183364624 912,166.27687752661222 896,175.51448183364624 896,193.98969044771425 912,203.2272947547483" id="hexagon-286"></polygon><polygon class="hexagons-background__hexagon hexagons-background__hexagon--3" points="928,230.94010767585033 944,221.7025033688163 944,203.22729475474827 928,193.98969044771425 912,203.22729475474827 912,221.70250336881628 928,230.94010767585033" id="hexagon-287"></polygon><polygon class="hexagons-background__hexagon hexagons-background__hexagon--8" points="912,258.65292059695236 928,249.41531628991834 928,230.9401076758503 912,221.70250336881628 896,230.9401076758503 896,249.4153162899183 912,258.65292059695236" id="hexagon-288"></polygon><polygon class="hexagons-background__hexagon hexagons-background__hexagon--3" points="928,286.36573351805436 944,277.12812921102034 944,258.6529205969523 928,249.41531628991828 912,258.6529205969523 912,277.12812921102034 928,286.36573351805436" id="hexagon-289"></polygon><polygon class="hexagons-background__hexagon hexagons-background__hexagon--9" points="944,36.950417228136054 960,27.712812921102042 960,9.237604307034017 944,0 928,9.237604307034005 928,27.712812921102028 944,36.950417228136054" id="hexagon-290"></polygon><polygon class="hexagons-background__hexagon hexagons-background__hexagon--2" points="960,64.66323014923809 976,55.425625842204084 976,36.950417228136054 960,27.71281292110204 944,36.95041722813605 944,55.42562584220407 960,64.66323014923809" id="hexagon-291"></polygon><polygon class="hexagons-background__hexagon hexagons-background__hexagon--5" points="944,92.37604307034012 960,83.13843876330611 960,64.66323014923809 944,55.42562584220407 928,64.66323014923807 928,83.1384387633061 944,92.37604307034012" id="hexagon-292"></polygon><polygon class="hexagons-background__hexagon hexagons-background__hexagon--5" points="960,120.08885599144216 976,110.85125168440815 976,92.37604307034013 960,83.13843876330611 944,92.37604307034012 944,110.85125168440814 960,120.08885599144216" id="hexagon-293"></polygon><polygon class="hexagons-background__hexagon hexagons-background__hexagon--6" points="944,147.80166891254422 960,138.5640646055102 960,120.08885599144217 944,110.85125168440815 928,120.08885599144216 928,138.56406460551017 944,147.80166891254422" id="hexagon-294"></polygon><polygon class="hexagons-background__hexagon hexagons-background__hexagon--2" points="960,175.51448183364624 976,166.27687752661222 976,147.8016689125442 960,138.56406460551017 944,147.8016689125442 944,166.2768775266122 960,175.51448183364624" id="hexagon-295"></polygon><polygon class="hexagons-background__hexagon hexagons-background__hexagon--5" points="944,203.2272947547483 960,193.98969044771428 960,175.51448183364624 944,166.27687752661222 928,175.51448183364624 928,193.98969044771425 944,203.2272947547483" id="hexagon-296"></polygon><polygon class="hexagons-background__hexagon hexagons-background__hexagon--8" points="960,230.94010767585033 976,221.7025033688163 976,203.22729475474827 960,193.98969044771425 944,203.22729475474827 944,221.70250336881628 960,230.94010767585033" id="hexagon-297"></polygon><polygon class="hexagons-background__hexagon hexagons-background__hexagon--3" points="944,258.65292059695236 960,249.41531628991834 960,230.9401076758503 944,221.70250336881628 928,230.9401076758503 928,249.4153162899183 944,258.65292059695236" id="hexagon-298"></polygon><polygon class="hexagons-background__hexagon hexagons-background__hexagon--5" points="960,286.36573351805436 976,277.12812921102034 976,258.6529205969523 960,249.41531628991828 944,258.6529205969523 944,277.12812921102034 960,286.36573351805436" id="hexagon-299"></polygon></svg>
