<svg id="s" version="1.1" xmlns="http://www.w3.org/2000/svg" width="976.0000000000001" height="36.95041722813605" viewBox="0 0 976.0000000000001 36.95041722813605" class="{{ class }}">
<polygon class="hexagons-background__hexagon hexagons-background__hexagon--5" points="16,36.950417228136054 32,27.712812921102042 32,9.237604307034017 16.000000000000004,0 0,9.237604307034005 -1.0658141036401503e-14,27.712812921102028 15.999999999999979,36.950417228136054" id="hexagon-0"></polygon><polygon class="hexagons-background__hexagon hexagons-background__hexagon--1" points="48,36.950417228136054 64,27.712812921102042 64,9.237604307034017 48,0 32,9.237604307034005 31.99999999999999,27.712812921102028 47.99999999999998,36.950417228136054" id="hexagon-1"></polygon><polygon class="hexagons-background__hexagon hexagons-background__hexagon--10" points="80,36.950417228136054 96,27.712812921102042 96,9.237604307034017 80,0 64,9.237604307034005 63.999999999999986,27.712812921102028 79.99999999999999,36.950417228136054" id="hexagon-2"></polygon><polygon class="hexagons-background__hexagon hexagons-background__hexagon--7" points="112,36.950417228136054 128,27.712812921102042 128,9.237604307034017 112,0 96,9.237604307034005 95.99999999999999,27.712812921102028 111.99999999999999,36.950417228136054" id="hexagon-3"></polygon><polygon class="hexagons-background__hexagon hexagons-background__hexagon--10" points="144,36.950417228136054 160,27.712812921102042 160,9.237604307034017 144,0 128,9.237604307034005 127.99999999999999,27.712812921102028 143.99999999999997,36.950417228136054" id="hexagon-4"></polygon><polygon class="hexagons-background__hexagon hexagons-background__hexagon--9" points="176,36.950417228136054 192,27.712812921102042 192,9.237604307034017 176,0 160,9.237604307034005 160,27.712812921102028 175.99999999999997,36.950417228136054" id="hexagon-5"></polygon><polygon class="hexagons-background__hexagon hexagons-background__hexagon--9" points="208,36.950417228136054 224,27.712812921102042 224,9.237604307034017 208,0 192,9.237604307034005 192,27.712812921102028 207.99999999999997,36.950417228136054" id="hexagon-6"></polygon><polygon class="hexagons-background__hexagon hexagons-background__hexagon--5" points="240,36.950417228136054 256,27.712812921102042 256,9.237604307034017 240,0 224,9.237604307034005 224,27.712812921102028 239.99999999999997,36.950417228136054" id="hexagon-7"></polygon><polygon class="hexagons-background__hexagon hexagons-background__hexagon--9" points="272,36.950417228136054 288,27.712812921102042 288,9.237604307034017 272,0 256,9.237604307034005 256,27.712812921102028 272,36.950417228136054" id="hexagon-8"></polygon><polygon class="hexagons-background__hexagon hexagons-background__hexagon--10" points="304,36.950417228136054 320,27.712812921102042 320,9.237604307034017 304,0 288,9.237604307034005 288,27.712812921102028 304,36.950417228136054" id="hexagon-9"></polygon><polygon class="hexagons-background__hexagon hexagons-background__hexagon--8" points="336,36.950417228136054 352,27.712812921102042 352,9.237604307034017 336,0 320,9.237604307034005 320,27.712812921102028 336,36.950417228136054" id="hexagon-10"></polygon><polygon class="hexagons-background__hexagon hexagons-background__hexagon--8" points="368,36.950417228136054 384,27.712812921102042 384,9.237604307034017 368,0 352,9.237604307034005 352,27.712812921102028 368,36.950417228136054" id="hexagon-11"></polygon><polygon class="hexagons-background__hexagon hexagons-background__hexagon--8" points="400,36.950417228136054 416,27.712812921102042 416,9.237604307034017 400,0 384,9.237604307034005 384,27.712812921102028 400,36.950417228136054" id="hexagon-12"></polygon><polygon class="hexagons-background__hexagon hexagons-background__hexagon--8" points="432,36.950417228136054 448,27.712812921102042 448,9.237604307034017 432,0 416,9.237604307034005 416,27.712812921102028 432,36.950417228136054" id="hexagon-13"></polygon><polygon class="hexagons-background__hexagon hexagons-background__hexagon--6" points="464,36.950417228136054 480,27.712812921102042 480,9.237604307034017 464,0 448,9.237604307034005 448,27.712812921102028 464,36.950417228136054" id="hexagon-14"></polygon><polygon class="hexagons-background__hexagon hexagons-background__hexagon--6" points="496,36.950417228136054 512,27.712812921102042 512,9.237604307034017 496,0 480,9.237604307034005 480,27.712812921102028 496,36.950417228136054" id="hexagon-15"></polygon><polygon class="hexagons-background__hexagon hexagons-background__hexagon--5" points="528,36.950417228136054 544,27.712812921102042 544,9.237604307034017 528,0 512,9.237604307034005 512,27.712812921102028 528,36.950417228136054" id="hexagon-16"></polygon><polygon class="hexagons-background__hexagon hexagons-background__hexagon--9" points="560,36.950417228136054 576,27.712812921102042 576,9.237604307034017 560,0 544,9.237604307034005 544,27.712812921102028 560,36.950417228136054" id="hexagon-17"></polygon><polygon class="hexagons-background__hexagon hexagons-background__hexagon--3" points="592,36.950417228136054 608,27.712812921102042 608,9.237604307034017 592,0 576,9.237604307034005 576,27.712812921102028 592,36.950417228136054" id="hexagon-18"></polygon><polygon class="hexagons-background__hexagon hexagons-background__hexagon--6" points="624,36.950417228136054 640,27.712812921102042 640,9.237604307034017 624,0 608,9.237604307034005 608,27.712812921102028 624,36.950417228136054" id="hexagon-19"></polygon><polygon class="hexagons-background__hexagon hexagons-background__hexagon--5" points="656,36.950417228136054 672,27.712812921102042 672,9.237604307034017 656,0 640,9.237604307034005 640,27.712812921102028 656,36.950417228136054" id="hexagon-20"></polygon><polygon class="hexagons-background__hexagon hexagons-background__hexagon--1" points="688,36.950417228136054 704,27.712812921102042 704,9.237604307034017 688,0 672,9.237604307034005 672,27.712812921102028 688,36.950417228136054" id="hexagon-21"></polygon><polygon class="hexagons-background__hexagon hexagons-background__hexagon--3" points="720,36.950417228136054 736,27.712812921102042 736,9.237604307034017 720,0 704,9.237604307034005 704,27.712812921102028 720,36.950417228136054" id="hexagon-22"></polygon><polygon class="hexagons-background__hexagon hexagons-background__hexagon--1" points="752,36.950417228136054 768,27.712812921102042 768,9.237604307034017 752,0 736,9.237604307034005 736,27.712812921102028 752,36.950417228136054" id="hexagon-23"></polygon><polygon class="hexagons-background__hexagon hexagons-background__hexagon--1" points="784,36.950417228136054 800,27.712812921102042 800,9.237604307034017 784,0 768,9.237604307034005 768,27.712812921102028 784,36.950417228136054" id="hexagon-24"></polygon><polygon class="hexagons-background__hexagon hexagons-background__hexagon--7" points="816,36.950417228136054 832,27.712812921102042 832,9.237604307034017 816,0 800,9.237604307034005 800,27.712812921102028 816,36.950417228136054" id="hexagon-25"></polygon><polygon class="hexagons-background__hexagon hexagons-background__hexagon--1" points="848,36.950417228136054 864,27.712812921102042 864,9.237604307034017 848,0 832,9.237604307034005 832,27.712812921102028 848,36.950417228136054" id="hexagon-26"></polygon><polygon class="hexagons-background__hexagon hexagons-background__hexagon--9" points="880,36.950417228136054 896,27.712812921102042 896,9.237604307034017 880,0 864,9.237604307034005 864,27.712812921102028 880,36.950417228136054" id="hexagon-27"></polygon><polygon class="hexagons-background__hexagon hexagons-background__hexagon--5" points="912,36.950417228136054 928,27.712812921102042 928,9.237604307034017 912,0 896,9.237604307034005 896,27.712812921102028 912,36.950417228136054" id="hexagon-28"></polygon><polygon class="hexagons-background__hexagon hexagons-background__hexagon--3" points="944,36.950417228136054 960,27.712812921102042 960,9.237604307034017 944,0 928,9.237604307034005 928,27.712812921102028 944,36.950417228136054" id="hexagon-29"></polygon></svg>
