<svg version="1.1" xmlns="http://www.w3.org/2000/svg" width="1296.0000000000002" height="1117.7501211511158" viewBox="0 0 1296.0000000000002 1117.7501211511158" class="{{ class }}">
  <polygon
     points="16,36.950417228136054 32,27.712812921102042 32,9.237604307034017 16.000000000000004,0 0,9.237604307034005 -1.0658141036401503e-14,27.712812921102028 15.999999999999979,36.950417228136054"
     class="hexagons-background__hexagon hexagons-background__hexagon--3" />
  <polygon
     points="32,64.66323014923809 48,55.425625842204084 48,36.950417228136054 32,27.71281292110204 16,36.95041722813605 15.99999999999999,55.42562584220407 31.99999999999998,64.66323014923809"
     class="hexagons-background__hexagon hexagons-background__hexagon--5" />
  <polygon
     points="48,36.950417228136054 64,27.712812921102042 64,9.237604307034017 48,0 32,9.237604307034005 31.99999999999999,27.712812921102028 47.99999999999998,36.950417228136054"
     class="hexagons-background__hexagon hexagons-background__hexagon--4" />
  <polygon
     points="64,64.66323014923809 80,55.425625842204084 80,36.950417228136054 64,27.71281292110204 48,36.95041722813605 47.999999999999986,55.42562584220407 63.99999999999998,64.66323014923809"
     class="hexagons-background__hexagon hexagons-background__hexagon--6" />
  <polygon
     points="80,36.950417228136054 96,27.712812921102042 96,9.237604307034017 80,0 64,9.237604307034005 63.999999999999986,27.712812921102028 79.99999999999999,36.950417228136054"
     class="hexagons-background__hexagon hexagons-background__hexagon--10" />
  <polygon
     points="96,64.66323014923809 112,55.425625842204084 112,36.950417228136054 96,27.71281292110204 80,36.95041722813605 79.99999999999999,55.42562584220407 95.99999999999999,64.66323014923809"
     class="hexagons-background__hexagon hexagons-background__hexagon--4" />
  <polygon
     points="112,36.950417228136054 128,27.712812921102042 128,9.237604307034017 112,0 96,9.237604307034005 95.99999999999999,27.712812921102028 111.99999999999999,36.950417228136054"
     class="hexagons-background__hexagon hexagons-background__hexagon--9" />
  <polygon
     points="128,64.66323014923809 144,55.425625842204084 144,36.950417228136054 128,27.71281292110204 112,36.95041722813605 111.99999999999999,55.42562584220407 127.99999999999999,64.66323014923809"
     class="hexagons-background__hexagon hexagons-background__hexagon--7" />
  <polygon
     points="144,36.950417228136054 160,27.712812921102042 160,9.237604307034017 144,0 128,9.237604307034005 127.99999999999999,27.712812921102028 143.99999999999997,36.950417228136054"
     class="hexagons-background__hexagon hexagons-background__hexagon--3" />
  <polygon
     points="160,64.66323014923809 176,55.425625842204084 176,36.950417228136054 160,27.71281292110204 144,36.95041722813605 144,55.42562584220407 159.99999999999997,64.66323014923809"
     class="hexagons-background__hexagon hexagons-background__hexagon--3" />
  <polygon
     points="176,36.950417228136054 192,27.712812921102042 192,9.237604307034017 176,0 160,9.237604307034005 160,27.712812921102028 175.99999999999997,36.950417228136054"
     class="hexagons-background__hexagon hexagons-background__hexagon--3" />
  <polygon
     points="192,64.66323014923809 208,55.425625842204084 208,36.950417228136054 192,27.71281292110204 176,36.95041722813605 176,55.42562584220407 191.99999999999997,64.66323014923809"
     class="hexagons-background__hexagon hexagons-background__hexagon--5" />
  <polygon
     points="208,36.950417228136054 224,27.712812921102042 224,9.237604307034017 208,0 192,9.237604307034005 192,27.712812921102028 207.99999999999997,36.950417228136054"
     class="hexagons-background__hexagon hexagons-background__hexagon--2" />
  <polygon
     points="224,64.66323014923809 240,55.425625842204084 240,36.950417228136054 224,27.71281292110204 208,36.95041722813605 208,55.42562584220407 223.99999999999997,64.66323014923809"
     class="hexagons-background__hexagon hexagons-background__hexagon--4" />
  <polygon
     points="240,36.950417228136054 256,27.712812921102042 256,9.237604307034017 240,0 224,9.237604307034005 224,27.712812921102028 239.99999999999997,36.950417228136054"
     class="hexagons-background__hexagon hexagons-background__hexagon--6" />
  <polygon
     points="256,64.66323014923809 272,55.425625842204084 272,36.950417228136054 256,27.71281292110204 240,36.95041722813605 240,55.42562584220407 255.99999999999997,64.66323014923809"
     class="hexagons-background__hexagon hexagons-background__hexagon--10" />
  <polygon
     points="272,36.950417228136054 288,27.712812921102042 288,9.237604307034017 272,0 256,9.237604307034005 256,27.712812921102028 272,36.950417228136054"
     class="hexagons-background__hexagon hexagons-background__hexagon--6" />
  <polygon
     points="288,64.66323014923809 304,55.425625842204084 304,36.950417228136054 288,27.71281292110204 272,36.95041722813605 272,55.42562584220407 288,64.66323014923809"
     class="hexagons-background__hexagon hexagons-background__hexagon--6" />
  <polygon
     points="304,36.950417228136054 320,27.712812921102042 320,9.237604307034017 304,0 288,9.237604307034005 288,27.712812921102028 304,36.950417228136054"
     class="hexagons-background__hexagon hexagons-background__hexagon--4" />
  <polygon
     points="320,64.66323014923809 336,55.425625842204084 336,36.950417228136054 320,27.71281292110204 304,36.95041722813605 304,55.42562584220407 320,64.66323014923809"
     class="hexagons-background__hexagon hexagons-background__hexagon--9" />
  <polygon
     points="336,36.950417228136054 352,27.712812921102042 352,9.237604307034017 336,0 320,9.237604307034005 320,27.712812921102028 336,36.950417228136054"
     class="hexagons-background__hexagon hexagons-background__hexagon--8" />
  <polygon
     points="352,64.66323014923809 368,55.425625842204084 368,36.950417228136054 352,27.71281292110204 336,36.95041722813605 336,55.42562584220407 352,64.66323014923809"
     class="hexagons-background__hexagon hexagons-background__hexagon--2" />
  <polygon
     points="368,36.950417228136054 384,27.712812921102042 384,9.237604307034017 368,0 352,9.237604307034005 352,27.712812921102028 368,36.950417228136054"
     class="hexagons-background__hexagon hexagons-background__hexagon--5" />
  <polygon
     points="384,64.66323014923809 400,55.425625842204084 400,36.950417228136054 384,27.71281292110204 368,36.95041722813605 368,55.42562584220407 384,64.66323014923809"
     class="hexagons-background__hexagon hexagons-background__hexagon--9" />
  <polygon
     points="400,36.950417228136054 416,27.712812921102042 416,9.237604307034017 400,0 384,9.237604307034005 384,27.712812921102028 400,36.950417228136054"
     class="hexagons-background__hexagon hexagons-background__hexagon--1" />
  <polygon
     points="416,64.66323014923809 432,55.425625842204084 432,36.950417228136054 416,27.71281292110204 400,36.95041722813605 400,55.42562584220407 416,64.66323014923809"
     class="hexagons-background__hexagon hexagons-background__hexagon--4" />
  <polygon
     points="432,36.950417228136054 448,27.712812921102042 448,9.237604307034017 432,0 416,9.237604307034005 416,27.712812921102028 432,36.950417228136054"
     class="hexagons-background__hexagon hexagons-background__hexagon--5" />
  <polygon
     points="448,64.66323014923809 464,55.425625842204084 464,36.950417228136054 448,27.71281292110204 432,36.95041722813605 432,55.42562584220407 448,64.66323014923809"
     class="hexagons-background__hexagon hexagons-background__hexagon--5" />
  <polygon
     points="464,36.950417228136054 480,27.712812921102042 480,9.237604307034017 464,0 448,9.237604307034005 448,27.712812921102028 464,36.950417228136054"
     class="hexagons-background__hexagon hexagons-background__hexagon--1" />
  <polygon
     points="480,64.66323014923809 496,55.425625842204084 496,36.950417228136054 480,27.71281292110204 464,36.95041722813605 464,55.42562584220407 480,64.66323014923809"
     class="hexagons-background__hexagon hexagons-background__hexagon--6" />
  <polygon
     points="496,36.950417228136054 512,27.712812921102042 512,9.237604307034017 496,0 480,9.237604307034005 480,27.712812921102028 496,36.950417228136054"
     class="hexagons-background__hexagon hexagons-background__hexagon--5" />
  <polygon
     points="512,64.66323014923809 528,55.425625842204084 528,36.950417228136054 512,27.71281292110204 496,36.95041722813605 496,55.42562584220407 512,64.66323014923809"
     class="hexagons-background__hexagon hexagons-background__hexagon--10" />
  <polygon
     points="528,36.950417228136054 544,27.712812921102042 544,9.237604307034017 528,0 512,9.237604307034005 512,27.712812921102028 528,36.950417228136054"
     class="hexagons-background__hexagon hexagons-background__hexagon--6" />
  <polygon
     points="544,64.66323014923809 560,55.425625842204084 560,36.950417228136054 544,27.71281292110204 528,36.95041722813605 528,55.42562584220407 544,64.66323014923809"
     class="hexagons-background__hexagon hexagons-background__hexagon--10" />
  <polygon
     points="560,36.950417228136054 576,27.712812921102042 576,9.237604307034017 560,0 544,9.237604307034005 544,27.712812921102028 560,36.950417228136054"
     class="hexagons-background__hexagon hexagons-background__hexagon--6" />
  <polygon
     points="576,64.66323014923809 592,55.425625842204084 592,36.950417228136054 576,27.71281292110204 560,36.95041722813605 560,55.42562584220407 576,64.66323014923809"
     class="hexagons-background__hexagon hexagons-background__hexagon--7" />
  <polygon
     points="592,36.950417228136054 608,27.712812921102042 608,9.237604307034017 592,0 576,9.237604307034005 576,27.712812921102028 592,36.950417228136054"
     class="hexagons-background__hexagon hexagons-background__hexagon--4" />
  <polygon
     points="608,64.66323014923809 624,55.425625842204084 624,36.950417228136054 608,27.71281292110204 592,36.95041722813605 592,55.42562584220407 608,64.66323014923809"
     class="hexagons-background__hexagon hexagons-background__hexagon--5" />
  <polygon
     points="624,36.950417228136054 640,27.712812921102042 640,9.237604307034017 624,0 608,9.237604307034005 608,27.712812921102028 624,36.950417228136054"
     class="hexagons-background__hexagon hexagons-background__hexagon--9" />
  <polygon
     points="640,64.66323014923809 656,55.425625842204084 656,36.950417228136054 640,27.71281292110204 624,36.95041722813605 624,55.42562584220407 640,64.66323014923809"
     class="hexagons-background__hexagon hexagons-background__hexagon--10" />
  <polygon
     points="656,36.950417228136054 672,27.712812921102042 672,9.237604307034017 656,0 640,9.237604307034005 640,27.712812921102028 656,36.950417228136054"
     class="hexagons-background__hexagon hexagons-background__hexagon--5" />
  <polygon
     points="672,64.66323014923809 688,55.425625842204084 688,36.950417228136054 672,27.71281292110204 656,36.95041722813605 656,55.42562584220407 672,64.66323014923809"
     class="hexagons-background__hexagon hexagons-background__hexagon--7" />
  <polygon
     points="688,36.950417228136054 704,27.712812921102042 704,9.237604307034017 688,0 672,9.237604307034005 672,27.712812921102028 688,36.950417228136054"
     class="hexagons-background__hexagon hexagons-background__hexagon--7" />
  <polygon
     points="704,64.66323014923809 720,55.425625842204084 720,36.950417228136054 704,27.71281292110204 688,36.95041722813605 688,55.42562584220407 704,64.66323014923809"
     class="hexagons-background__hexagon hexagons-background__hexagon--9" />
  <polygon
     points="720,36.950417228136054 736,27.712812921102042 736,9.237604307034017 720,0 704,9.237604307034005 704,27.712812921102028 720,36.950417228136054"
     class="hexagons-background__hexagon hexagons-background__hexagon--1" />
  <polygon
     points="736,64.66323014923809 752,55.425625842204084 752,36.950417228136054 736,27.71281292110204 720,36.95041722813605 720,55.42562584220407 736,64.66323014923809"
     class="hexagons-background__hexagon hexagons-background__hexagon--9" />
  <polygon
     points="752,36.950417228136054 768,27.712812921102042 768,9.237604307034017 752,0 736,9.237604307034005 736,27.712812921102028 752,36.950417228136054"
     class="hexagons-background__hexagon hexagons-background__hexagon--10" />
  <polygon
     points="768,64.66323014923809 784,55.425625842204084 784,36.950417228136054 768,27.71281292110204 752,36.95041722813605 752,55.42562584220407 768,64.66323014923809"
     class="hexagons-background__hexagon hexagons-background__hexagon--6" />
  <polygon
     points="784,36.950417228136054 800,27.712812921102042 800,9.237604307034017 784,0 768,9.237604307034005 768,27.712812921102028 784,36.950417228136054"
     class="hexagons-background__hexagon hexagons-background__hexagon--6" />
  <polygon
     points="800,64.66323014923809 816,55.425625842204084 816,36.950417228136054 800,27.71281292110204 784,36.95041722813605 784,55.42562584220407 800,64.66323014923809"
     class="hexagons-background__hexagon hexagons-background__hexagon--2" />
  <polygon
     points="816,36.950417228136054 832,27.712812921102042 832,9.237604307034017 816,0 800,9.237604307034005 800,27.712812921102028 816,36.950417228136054"
     class="hexagons-background__hexagon hexagons-background__hexagon--2" />
  <polygon
     points="832,64.66323014923809 848,55.425625842204084 848,36.950417228136054 832,27.71281292110204 816,36.95041722813605 816,55.42562584220407 832,64.66323014923809"
     class="hexagons-background__hexagon hexagons-background__hexagon--6" />
  <polygon
     points="848,36.950417228136054 864,27.712812921102042 864,9.237604307034017 848,0 832,9.237604307034005 832,27.712812921102028 848,36.950417228136054"
     class="hexagons-background__hexagon hexagons-background__hexagon--10" />
  <polygon
     points="864,64.66323014923809 880,55.425625842204084 880,36.950417228136054 864,27.71281292110204 848,36.95041722813605 848,55.42562584220407 864,64.66323014923809"
     class="hexagons-background__hexagon hexagons-background__hexagon--1" />
  <polygon
     points="880,36.950417228136054 896,27.712812921102042 896,9.237604307034017 880,0 864,9.237604307034005 864,27.712812921102028 880,36.950417228136054"
     class="hexagons-background__hexagon hexagons-background__hexagon--9" />
  <polygon
     points="896,64.66323014923809 912,55.425625842204084 912,36.950417228136054 896,27.71281292110204 880,36.95041722813605 880,55.42562584220407 896,64.66323014923809"
     class="hexagons-background__hexagon hexagons-background__hexagon--7" />
  <polygon
     points="912,36.950417228136054 928,27.712812921102042 928,9.237604307034017 912,0 896,9.237604307034005 896,27.712812921102028 912,36.950417228136054"
     class="hexagons-background__hexagon hexagons-background__hexagon--7" />
  <polygon
     points="928,64.66323014923809 944,55.425625842204084 944,36.950417228136054 928,27.71281292110204 912,36.95041722813605 912,55.42562584220407 928,64.66323014923809"
     class="hexagons-background__hexagon hexagons-background__hexagon--4" />
  <polygon
     points="944,36.950417228136054 960,27.712812921102042 960,9.237604307034017 944,0 928,9.237604307034005 928,27.712812921102028 944,36.950417228136054"
     class="hexagons-background__hexagon hexagons-background__hexagon--8" />
  <polygon
     points="960,64.66323014923809 976,55.425625842204084 976,36.950417228136054 960,27.71281292110204 944,36.95041722813605 944,55.42562584220407 960,64.66323014923809"
     class="hexagons-background__hexagon hexagons-background__hexagon--9" />
  <polygon
     points="976,36.950417228136054 992,27.712812921102042 992,9.237604307034017 976,0 960,9.237604307034005 960,27.712812921102028 976,36.950417228136054"
     class="hexagons-background__hexagon hexagons-background__hexagon--6" />
  <polygon
     points="992,64.66323014923809 1008,55.425625842204084 1008,36.950417228136054 992,27.71281292110204 976,36.95041722813605 976,55.42562584220407 992,64.66323014923809"
     class="hexagons-background__hexagon hexagons-background__hexagon--4" />
  <polygon
     points="1008,36.950417228136054 1024,27.712812921102042 1024,9.237604307034017 1008,0 992,9.237604307034005 992,27.712812921102028 1008,36.950417228136054"
     class="hexagons-background__hexagon hexagons-background__hexagon--9" />
  <polygon
     points="1024,64.66323014923809 1040,55.425625842204084 1040,36.950417228136054 1024,27.71281292110204 1008,36.95041722813605 1008,55.42562584220407 1024,64.66323014923809"
     class="hexagons-background__hexagon hexagons-background__hexagon--5" />
  <polygon
     points="1040,36.950417228136054 1056,27.712812921102042 1056,9.237604307034017 1040,0 1024,9.237604307034005 1024,27.712812921102028 1040,36.950417228136054"
     class="hexagons-background__hexagon hexagons-background__hexagon--10" />
  <polygon
     points="1056,64.66323014923809 1072,55.425625842204084 1072,36.950417228136054 1056,27.71281292110204 1040,36.95041722813605 1040,55.42562584220407 1056,64.66323014923809"
     class="hexagons-background__hexagon hexagons-background__hexagon--4" />
  <polygon
     points="1072,36.950417228136054 1088,27.712812921102042 1088,9.237604307034017 1072,0 1056,9.237604307034005 1056,27.712812921102028 1072,36.950417228136054"
     class="hexagons-background__hexagon hexagons-background__hexagon--10" />
  <polygon
     points="1088,64.66323014923809 1104,55.425625842204084 1104,36.950417228136054 1088,27.71281292110204 1072,36.95041722813605 1072,55.42562584220407 1088,64.66323014923809"
     class="hexagons-background__hexagon hexagons-background__hexagon--2" />
  <polygon
     points="1104,36.950417228136054 1120,27.712812921102042 1120,9.237604307034017 1104,0 1088,9.237604307034005 1088,27.712812921102028 1104,36.950417228136054"
     class="hexagons-background__hexagon hexagons-background__hexagon--1" />
  <polygon
     points="1120,64.66323014923809 1136,55.425625842204084 1136,36.950417228136054 1120,27.71281292110204 1104,36.95041722813605 1104,55.42562584220407 1120,64.66323014923809"
     class="hexagons-background__hexagon hexagons-background__hexagon--6" />
  <polygon
     points="1136,36.950417228136054 1152,27.712812921102042 1152,9.237604307034017 1136,0 1120,9.237604307034005 1120,27.712812921102028 1136,36.950417228136054"
     class="hexagons-background__hexagon hexagons-background__hexagon--1" />
  <polygon
     points="1152,64.66323014923809 1168,55.425625842204084 1168,36.950417228136054 1152,27.71281292110204 1136,36.95041722813605 1136,55.42562584220407 1152,64.66323014923809"
     class="hexagons-background__hexagon hexagons-background__hexagon--3" />
  <polygon
     points="1168,36.950417228136054 1184,27.712812921102042 1184,9.237604307034017 1168,0 1152,9.237604307034005 1152,27.712812921102028 1168,36.950417228136054"
     class="hexagons-background__hexagon hexagons-background__hexagon--5" />
  <polygon
     points="1184,64.66323014923809 1200,55.425625842204084 1200,36.950417228136054 1184,27.71281292110204 1168,36.95041722813605 1168,55.42562584220407 1184,64.66323014923809"
     class="hexagons-background__hexagon hexagons-background__hexagon--8" />
  <polygon
     points="1200,36.950417228136054 1216,27.712812921102042 1216,9.237604307034017 1200,0 1184,9.237604307034005 1184,27.712812921102028 1200,36.950417228136054"
     class="hexagons-background__hexagon hexagons-background__hexagon--9" />
  <polygon
     points="1216,64.66323014923809 1232,55.425625842204084 1232,36.950417228136054 1216,27.71281292110204 1200,36.95041722813605 1200,55.42562584220407 1216,64.66323014923809"
     class="hexagons-background__hexagon hexagons-background__hexagon--4" />
  <polygon
     points="1232,36.950417228136054 1248,27.712812921102042 1248,9.237604307034017 1232,0 1216,9.237604307034005 1216,27.712812921102028 1232,36.950417228136054"
     class="hexagons-background__hexagon hexagons-background__hexagon--7" />
  <polygon
     points="1248,64.66323014923809 1264,55.425625842204084 1264,36.950417228136054 1248,27.71281292110204 1232,36.95041722813605 1232,55.42562584220407 1248,64.66323014923809"
     class="hexagons-background__hexagon hexagons-background__hexagon--3" />
  <polygon
     points="1264,36.950417228136054 1280,27.712812921102042 1280,9.237604307034017 1264,0 1248,9.237604307034005 1248,27.712812921102028 1264,36.950417228136054"
     class="hexagons-background__hexagon hexagons-background__hexagon--2" />
  <polygon
     points="1280,64.66323014923809 1296,55.425625842204084 1296,36.950417228136054 1280,27.71281292110204 1264,36.95041722813605 1264,55.42562584220407 1280,64.66323014923809"
     class="hexagons-background__hexagon hexagons-background__hexagon--10" />
</svg>
