<svg version="1.1" xmlns="http://www.w3.org/2000/svg" width="1296.0000000000002" height="1117.7501211511158" viewBox="0 0 1296.0000000000002 1117.7501211511158" class="{{ class }}">
  <polygon
     points="16,480.35542396576864 32,471.1178196587346 32,452.6426110446666 16.000000000000004,443.40500673763256 0,452.6426110446666 -1.0658141036401503e-14,471.1178196587346 15.999999999999979,480.35542396576864"
     class="hexagons-background__hexagon hexagons-background__hexagon--2" />
  <polygon
     points="32,508.0682368868707 48,498.8306325798367 48,480.35542396576864 32,471.1178196587346 16,480.35542396576864 15.99999999999999,498.8306325798367 31.99999999999998,508.0682368868707"
     class="hexagons-background__hexagon hexagons-background__hexagon--7" />
  <polygon
     points="16,535.7810498079726 32,526.5434455009386 32,508.0682368868706 16.000000000000004,498.83063257983656 0,508.0682368868706 -1.0658141036401503e-14,526.5434455009386 15.999999999999979,535.7810498079726"
     class="hexagons-background__hexagon hexagons-background__hexagon--2" />
  <polygon
     points="32,563.4938627290747 48,554.2562584220407 48,535.7810498079727 32,526.5434455009387 16,535.7810498079726 15.99999999999999,554.2562584220407 31.99999999999998,563.4938627290747"
     class="hexagons-background__hexagon hexagons-background__hexagon--2" />
  <polygon
     points="48,480.35542396576864 64,471.1178196587346 64,452.6426110446666 48,443.40500673763256 32,452.6426110446666 31.99999999999999,471.1178196587346 47.99999999999998,480.35542396576864"
     class="hexagons-background__hexagon hexagons-background__hexagon--1" />
  <polygon
     points="64,508.0682368868707 80,498.8306325798367 80,480.35542396576864 64,471.1178196587346 48,480.35542396576864 47.999999999999986,498.8306325798367 63.99999999999998,508.0682368868707"
     class="hexagons-background__hexagon hexagons-background__hexagon--6" />
  <polygon
     points="48,535.7810498079726 64,526.5434455009386 64,508.0682368868706 48,498.83063257983656 32,508.0682368868706 31.99999999999999,526.5434455009386 47.99999999999998,535.7810498079726"
     class="hexagons-background__hexagon hexagons-background__hexagon--2" />
  <polygon
     points="64,563.4938627290747 80,554.2562584220407 80,535.7810498079727 64,526.5434455009387 48,535.7810498079726 47.999999999999986,554.2562584220407 63.99999999999998,563.4938627290747"
     class="hexagons-background__hexagon hexagons-background__hexagon--10" />
  <polygon
     points="80,480.35542396576864 96,471.1178196587346 96,452.6426110446666 80,443.40500673763256 64,452.6426110446666 63.999999999999986,471.1178196587346 79.99999999999999,480.35542396576864"
     class="hexagons-background__hexagon hexagons-background__hexagon--4" />
  <polygon
     points="96,508.0682368868707 112,498.8306325798367 112,480.35542396576864 96,471.1178196587346 80,480.35542396576864 79.99999999999999,498.8306325798367 95.99999999999999,508.0682368868707"
     class="hexagons-background__hexagon hexagons-background__hexagon--2" />
  <polygon
     points="80,535.7810498079726 96,526.5434455009386 96,508.0682368868706 80,498.83063257983656 64,508.0682368868706 63.999999999999986,526.5434455009386 79.99999999999999,535.7810498079726"
     class="hexagons-background__hexagon hexagons-background__hexagon--8" />
  <polygon
     points="96,563.4938627290747 112,554.2562584220407 112,535.7810498079727 96,526.5434455009387 80,535.7810498079726 79.99999999999999,554.2562584220407 95.99999999999999,563.4938627290747"
     class="hexagons-background__hexagon hexagons-background__hexagon--1" />
  <polygon
     points="112,480.35542396576864 128,471.1178196587346 128,452.6426110446666 112,443.40500673763256 96,452.6426110446666 95.99999999999999,471.1178196587346 111.99999999999999,480.35542396576864"
     class="hexagons-background__hexagon hexagons-background__hexagon--10" />
  <polygon
     points="128,508.0682368868707 144,498.8306325798367 144,480.35542396576864 128,471.1178196587346 112,480.35542396576864 111.99999999999999,498.8306325798367 127.99999999999999,508.0682368868707"
     class="hexagons-background__hexagon hexagons-background__hexagon--4" />
  <polygon
     points="112,535.7810498079726 128,526.5434455009386 128,508.0682368868706 112,498.83063257983656 96,508.0682368868706 95.99999999999999,526.5434455009386 111.99999999999999,535.7810498079726"
     class="hexagons-background__hexagon hexagons-background__hexagon--5" />
  <polygon
     points="128,563.4938627290747 144,554.2562584220407 144,535.7810498079727 128,526.5434455009387 112,535.7810498079726 111.99999999999999,554.2562584220407 127.99999999999999,563.4938627290747"
     class="hexagons-background__hexagon hexagons-background__hexagon--9" />
  <polygon
     points="144,480.35542396576864 160,471.1178196587346 160,452.6426110446666 144,443.40500673763256 128,452.6426110446666 127.99999999999999,471.1178196587346 143.99999999999997,480.35542396576864"
     class="hexagons-background__hexagon hexagons-background__hexagon--1" />
  <polygon
     points="160,508.0682368868707 176,498.8306325798367 176,480.35542396576864 160,471.1178196587346 144,480.35542396576864 144,498.8306325798367 159.99999999999997,508.0682368868707"
     class="hexagons-background__hexagon hexagons-background__hexagon--1" />
  <polygon
     points="144,535.7810498079726 160,526.5434455009386 160,508.0682368868706 144,498.83063257983656 128,508.0682368868706 127.99999999999999,526.5434455009386 143.99999999999997,535.7810498079726"
     class="hexagons-background__hexagon hexagons-background__hexagon--5" />
  <polygon
     points="160,563.4938627290747 176,554.2562584220407 176,535.7810498079727 160,526.5434455009387 144,535.7810498079726 144,554.2562584220407 159.99999999999997,563.4938627290747"
     class="hexagons-background__hexagon hexagons-background__hexagon--4" />
  <polygon
     points="176,480.35542396576864 192,471.1178196587346 192,452.6426110446666 176,443.40500673763256 160,452.6426110446666 160,471.1178196587346 175.99999999999997,480.35542396576864"
     class="hexagons-background__hexagon hexagons-background__hexagon--3" />
  <polygon
     points="192,508.0682368868707 208,498.8306325798367 208,480.35542396576864 192,471.1178196587346 176,480.35542396576864 176,498.8306325798367 191.99999999999997,508.0682368868707"
     class="hexagons-background__hexagon hexagons-background__hexagon--1" />
  <polygon
     points="176,535.7810498079726 192,526.5434455009386 192,508.0682368868706 176,498.83063257983656 160,508.0682368868706 160,526.5434455009386 175.99999999999997,535.7810498079726"
     class="hexagons-background__hexagon hexagons-background__hexagon--6" />
  <polygon
     points="192,563.4938627290747 208,554.2562584220407 208,535.7810498079727 192,526.5434455009387 176,535.7810498079726 176,554.2562584220407 191.99999999999997,563.4938627290747"
     class="hexagons-background__hexagon hexagons-background__hexagon--8" />
  <polygon
     points="208,480.35542396576864 224,471.1178196587346 224,452.6426110446666 208,443.40500673763256 192,452.6426110446666 192,471.1178196587346 207.99999999999997,480.35542396576864"
     class="hexagons-background__hexagon hexagons-background__hexagon--2" />
  <polygon
     points="224,508.0682368868707 240,498.8306325798367 240,480.35542396576864 224,471.1178196587346 208,480.35542396576864 208,498.8306325798367 223.99999999999997,508.0682368868707"
     class="hexagons-background__hexagon hexagons-background__hexagon--5" />
  <polygon
     points="208,535.7810498079726 224,526.5434455009386 224,508.0682368868706 208,498.83063257983656 192,508.0682368868706 192,526.5434455009386 207.99999999999997,535.7810498079726"
     class="hexagons-background__hexagon hexagons-background__hexagon--4" />
  <polygon
     points="224,563.4938627290747 240,554.2562584220407 240,535.7810498079727 224,526.5434455009387 208,535.7810498079726 208,554.2562584220407 223.99999999999997,563.4938627290747"
     class="hexagons-background__hexagon hexagons-background__hexagon--4" />
  <polygon
     points="240,480.35542396576864 256,471.1178196587346 256,452.6426110446666 240,443.40500673763256 224,452.6426110446666 224,471.1178196587346 239.99999999999997,480.35542396576864"
     class="hexagons-background__hexagon hexagons-background__hexagon--9" />
  <polygon
     points="256,508.0682368868707 272,498.8306325798367 272,480.35542396576864 256,471.1178196587346 240,480.35542396576864 240,498.8306325798367 255.99999999999997,508.0682368868707"
     class="hexagons-background__hexagon hexagons-background__hexagon--8" />
  <polygon
     points="240,535.7810498079726 256,526.5434455009386 256,508.0682368868706 240,498.83063257983656 224,508.0682368868706 224,526.5434455009386 239.99999999999997,535.7810498079726"
     class="hexagons-background__hexagon hexagons-background__hexagon--4" />
  <polygon
     points="256,563.4938627290747 272,554.2562584220407 272,535.7810498079727 256,526.5434455009387 240,535.7810498079726 240,554.2562584220407 255.99999999999997,563.4938627290747"
     class="hexagons-background__hexagon hexagons-background__hexagon--10" />
  <polygon
     points="272,480.35542396576864 288,471.1178196587346 288,452.6426110446666 272,443.40500673763256 256,452.6426110446666 256,471.1178196587346 272,480.35542396576864"
     class="hexagons-background__hexagon hexagons-background__hexagon--8" />
  <polygon
     points="288,508.0682368868707 304,498.8306325798367 304,480.35542396576864 288,471.1178196587346 272,480.35542396576864 272,498.8306325798367 288,508.0682368868707"
     class="hexagons-background__hexagon hexagons-background__hexagon--10" />
  <polygon
     points="272,535.7810498079726 288,526.5434455009386 288,508.0682368868706 272,498.83063257983656 256,508.0682368868706 256,526.5434455009386 272,535.7810498079726"
     class="hexagons-background__hexagon hexagons-background__hexagon--9" />
  <polygon
     points="288,563.4938627290747 304,554.2562584220407 304,535.7810498079727 288,526.5434455009387 272,535.7810498079726 272,554.2562584220407 288,563.4938627290747"
     class="hexagons-background__hexagon hexagons-background__hexagon--7" />
  <polygon
     points="304,480.35542396576864 320,471.1178196587346 320,452.6426110446666 304,443.40500673763256 288,452.6426110446666 288,471.1178196587346 304,480.35542396576864"
     class="hexagons-background__hexagon hexagons-background__hexagon--6" />
  <polygon
     points="320,508.0682368868707 336,498.8306325798367 336,480.35542396576864 320,471.1178196587346 304,480.35542396576864 304,498.8306325798367 320,508.0682368868707"
     class="hexagons-background__hexagon hexagons-background__hexagon--3" />
  <polygon
     points="304,535.7810498079726 320,526.5434455009386 320,508.0682368868706 304,498.83063257983656 288,508.0682368868706 288,526.5434455009386 304,535.7810498079726"
     class="hexagons-background__hexagon hexagons-background__hexagon--9" />
  <polygon
     points="320,563.4938627290747 336,554.2562584220407 336,535.7810498079727 320,526.5434455009387 304,535.7810498079726 304,554.2562584220407 320,563.4938627290747"
     class="hexagons-background__hexagon hexagons-background__hexagon--7" />
  <polygon
     points="336,480.35542396576864 352,471.1178196587346 352,452.6426110446666 336,443.40500673763256 320,452.6426110446666 320,471.1178196587346 336,480.35542396576864"
     class="hexagons-background__hexagon hexagons-background__hexagon--2" />
  <polygon
     points="352,508.0682368868707 368,498.8306325798367 368,480.35542396576864 352,471.1178196587346 336,480.35542396576864 336,498.8306325798367 352,508.0682368868707"
     class="hexagons-background__hexagon hexagons-background__hexagon--7" />
  <polygon
     points="336,535.7810498079726 352,526.5434455009386 352,508.0682368868706 336,498.83063257983656 320,508.0682368868706 320,526.5434455009386 336,535.7810498079726"
     class="hexagons-background__hexagon hexagons-background__hexagon--2" />
  <polygon
     points="352,563.4938627290747 368,554.2562584220407 368,535.7810498079727 352,526.5434455009387 336,535.7810498079726 336,554.2562584220407 352,563.4938627290747"
     class="hexagons-background__hexagon hexagons-background__hexagon--4" />
  <polygon
     points="368,480.35542396576864 384,471.1178196587346 384,452.6426110446666 368,443.40500673763256 352,452.6426110446666 352,471.1178196587346 368,480.35542396576864"
     class="hexagons-background__hexagon hexagons-background__hexagon--1" />
  <polygon
     points="384,508.0682368868707 400,498.8306325798367 400,480.35542396576864 384,471.1178196587346 368,480.35542396576864 368,498.8306325798367 384,508.0682368868707"
     class="hexagons-background__hexagon hexagons-background__hexagon--2" />
  <polygon
     points="368,535.7810498079726 384,526.5434455009386 384,508.0682368868706 368,498.83063257983656 352,508.0682368868706 352,526.5434455009386 368,535.7810498079726"
     class="hexagons-background__hexagon hexagons-background__hexagon--6" />
  <polygon
     points="384,563.4938627290747 400,554.2562584220407 400,535.7810498079727 384,526.5434455009387 368,535.7810498079726 368,554.2562584220407 384,563.4938627290747"
     class="hexagons-background__hexagon hexagons-background__hexagon--4" />
  <polygon
     points="400,480.35542396576864 416,471.1178196587346 416,452.6426110446666 400,443.40500673763256 384,452.6426110446666 384,471.1178196587346 400,480.35542396576864"
     class="hexagons-background__hexagon hexagons-background__hexagon--8" />
  <polygon
     points="416,508.0682368868707 432,498.8306325798367 432,480.35542396576864 416,471.1178196587346 400,480.35542396576864 400,498.8306325798367 416,508.0682368868707"
     class="hexagons-background__hexagon hexagons-background__hexagon--3" />
  <polygon
     points="400,535.7810498079726 416,526.5434455009386 416,508.0682368868706 400,498.83063257983656 384,508.0682368868706 384,526.5434455009386 400,535.7810498079726"
     class="hexagons-background__hexagon hexagons-background__hexagon--3" />
  <polygon
     points="416,563.4938627290747 432,554.2562584220407 432,535.7810498079727 416,526.5434455009387 400,535.7810498079726 400,554.2562584220407 416,563.4938627290747"
     class="hexagons-background__hexagon hexagons-background__hexagon--5" />
  <polygon
     points="432,480.35542396576864 448,471.1178196587346 448,452.6426110446666 432,443.40500673763256 416,452.6426110446666 416,471.1178196587346 432,480.35542396576864"
     class="hexagons-background__hexagon hexagons-background__hexagon--6" />
  <polygon
     points="448,508.0682368868707 464,498.8306325798367 464,480.35542396576864 448,471.1178196587346 432,480.35542396576864 432,498.8306325798367 448,508.0682368868707"
     class="hexagons-background__hexagon hexagons-background__hexagon--4" />
  <polygon
     points="432,535.7810498079726 448,526.5434455009386 448,508.0682368868706 432,498.83063257983656 416,508.0682368868706 416,526.5434455009386 432,535.7810498079726"
     class="hexagons-background__hexagon hexagons-background__hexagon--9" />
  <polygon
     points="448,563.4938627290747 464,554.2562584220407 464,535.7810498079727 448,526.5434455009387 432,535.7810498079726 432,554.2562584220407 448,563.4938627290747"
     class="hexagons-background__hexagon hexagons-background__hexagon--3" />
  <polygon
     points="464,480.35542396576864 480,471.1178196587346 480,452.6426110446666 464,443.40500673763256 448,452.6426110446666 448,471.1178196587346 464,480.35542396576864"
     class="hexagons-background__hexagon hexagons-background__hexagon--5" />
  <polygon
     points="480,508.0682368868707 496,498.8306325798367 496,480.35542396576864 480,471.1178196587346 464,480.35542396576864 464,498.8306325798367 480,508.0682368868707"
     class="hexagons-background__hexagon hexagons-background__hexagon--8" />
  <polygon
     points="464,535.7810498079726 480,526.5434455009386 480,508.0682368868706 464,498.83063257983656 448,508.0682368868706 448,526.5434455009386 464,535.7810498079726"
     class="hexagons-background__hexagon hexagons-background__hexagon--3" />
  <polygon
     points="480,563.4938627290747 496,554.2562584220407 496,535.7810498079727 480,526.5434455009387 464,535.7810498079726 464,554.2562584220407 480,563.4938627290747"
     class="hexagons-background__hexagon hexagons-background__hexagon--7" />
  <polygon
     points="496,480.35542396576864 512,471.1178196587346 512,452.6426110446666 496,443.40500673763256 480,452.6426110446666 480,471.1178196587346 496,480.35542396576864"
     class="hexagons-background__hexagon hexagons-background__hexagon--2" />
  <polygon
     points="512,508.0682368868707 528,498.8306325798367 528,480.35542396576864 512,471.1178196587346 496,480.35542396576864 496,498.8306325798367 512,508.0682368868707"
     class="hexagons-background__hexagon hexagons-background__hexagon--4" />
  <polygon
     points="496,535.7810498079726 512,526.5434455009386 512,508.0682368868706 496,498.83063257983656 480,508.0682368868706 480,526.5434455009386 496,535.7810498079726"
     class="hexagons-background__hexagon hexagons-background__hexagon--10" />
  <polygon
     points="512,563.4938627290747 528,554.2562584220407 528,535.7810498079727 512,526.5434455009387 496,535.7810498079726 496,554.2562584220407 512,563.4938627290747"
     class="hexagons-background__hexagon hexagons-background__hexagon--6" />
  <polygon
     points="528,480.35542396576864 544,471.1178196587346 544,452.6426110446666 528,443.40500673763256 512,452.6426110446666 512,471.1178196587346 528,480.35542396576864"
     class="hexagons-background__hexagon hexagons-background__hexagon--4" />
  <polygon
     points="544,508.0682368868707 560,498.8306325798367 560,480.35542396576864 544,471.1178196587346 528,480.35542396576864 528,498.8306325798367 544,508.0682368868707"
     class="hexagons-background__hexagon hexagons-background__hexagon--1" />
  <polygon
     points="528,535.7810498079726 544,526.5434455009386 544,508.0682368868706 528,498.83063257983656 512,508.0682368868706 512,526.5434455009386 528,535.7810498079726"
     class="hexagons-background__hexagon hexagons-background__hexagon--8" />
  <polygon
     points="544,563.4938627290747 560,554.2562584220407 560,535.7810498079727 544,526.5434455009387 528,535.7810498079726 528,554.2562584220407 544,563.4938627290747"
     class="hexagons-background__hexagon hexagons-background__hexagon--8" />
  <polygon
     points="560,480.35542396576864 576,471.1178196587346 576,452.6426110446666 560,443.40500673763256 544,452.6426110446666 544,471.1178196587346 560,480.35542396576864"
     class="hexagons-background__hexagon hexagons-background__hexagon--8" />
  <polygon
     points="576,508.0682368868707 592,498.8306325798367 592,480.35542396576864 576,471.1178196587346 560,480.35542396576864 560,498.8306325798367 576,508.0682368868707"
     class="hexagons-background__hexagon hexagons-background__hexagon--10" />
  <polygon
     points="560,535.7810498079726 576,526.5434455009386 576,508.0682368868706 560,498.83063257983656 544,508.0682368868706 544,526.5434455009386 560,535.7810498079726"
     class="hexagons-background__hexagon hexagons-background__hexagon--7" />
  <polygon
     points="576,563.4938627290747 592,554.2562584220407 592,535.7810498079727 576,526.5434455009387 560,535.7810498079726 560,554.2562584220407 576,563.4938627290747"
     class="hexagons-background__hexagon hexagons-background__hexagon--8" />
  <polygon
     points="592,480.35542396576864 608,471.1178196587346 608,452.6426110446666 592,443.40500673763256 576,452.6426110446666 576,471.1178196587346 592,480.35542396576864"
     class="hexagons-background__hexagon hexagons-background__hexagon--3" />
  <polygon
     points="608,508.0682368868707 624,498.8306325798367 624,480.35542396576864 608,471.1178196587346 592,480.35542396576864 592,498.8306325798367 608,508.0682368868707"
     class="hexagons-background__hexagon hexagons-background__hexagon--1" />
  <polygon
     points="592,535.7810498079726 608,526.5434455009386 608,508.0682368868706 592,498.83063257983656 576,508.0682368868706 576,526.5434455009386 592,535.7810498079726"
     class="hexagons-background__hexagon hexagons-background__hexagon--5" />
  <polygon
     points="608,563.4938627290747 624,554.2562584220407 624,535.7810498079727 608,526.5434455009387 592,535.7810498079726 592,554.2562584220407 608,563.4938627290747"
     class="hexagons-background__hexagon hexagons-background__hexagon--6" />
  <polygon
     points="624,480.35542396576864 640,471.1178196587346 640,452.6426110446666 624,443.40500673763256 608,452.6426110446666 608,471.1178196587346 624,480.35542396576864"
     class="hexagons-background__hexagon hexagons-background__hexagon--1" />
  <polygon
     points="640,508.0682368868707 656,498.8306325798367 656,480.35542396576864 640,471.1178196587346 624,480.35542396576864 624,498.8306325798367 640,508.0682368868707"
     class="hexagons-background__hexagon hexagons-background__hexagon--2" />
  <polygon
     points="624,535.7810498079726 640,526.5434455009386 640,508.0682368868706 624,498.83063257983656 608,508.0682368868706 608,526.5434455009386 624,535.7810498079726"
     class="hexagons-background__hexagon hexagons-background__hexagon--3" />
  <polygon
     points="640,563.4938627290747 656,554.2562584220407 656,535.7810498079727 640,526.5434455009387 624,535.7810498079726 624,554.2562584220407 640,563.4938627290747"
     class="hexagons-background__hexagon hexagons-background__hexagon--6" />
  <polygon
     points="656,480.35542396576864 672,471.1178196587346 672,452.6426110446666 656,443.40500673763256 640,452.6426110446666 640,471.1178196587346 656,480.35542396576864"
     class="hexagons-background__hexagon hexagons-background__hexagon--5" />
  <polygon
     points="672,508.0682368868707 688,498.8306325798367 688,480.35542396576864 672,471.1178196587346 656,480.35542396576864 656,498.8306325798367 672,508.0682368868707"
     class="hexagons-background__hexagon hexagons-background__hexagon--7" />
  <polygon
     points="656,535.7810498079726 672,526.5434455009386 672,508.0682368868706 656,498.83063257983656 640,508.0682368868706 640,526.5434455009386 656,535.7810498079726"
     class="hexagons-background__hexagon hexagons-background__hexagon--1" />
  <polygon
     points="672,563.4938627290747 688,554.2562584220407 688,535.7810498079727 672,526.5434455009387 656,535.7810498079726 656,554.2562584220407 672,563.4938627290747"
     class="hexagons-background__hexagon hexagons-background__hexagon--7" />
  <polygon
     points="688,480.35542396576864 704,471.1178196587346 704,452.6426110446666 688,443.40500673763256 672,452.6426110446666 672,471.1178196587346 688,480.35542396576864"
     class="hexagons-background__hexagon hexagons-background__hexagon--2" />
  <polygon
     points="704,508.0682368868707 720,498.8306325798367 720,480.35542396576864 704,471.1178196587346 688,480.35542396576864 688,498.8306325798367 704,508.0682368868707"
     class="hexagons-background__hexagon hexagons-background__hexagon--1" />
  <polygon
     points="688,535.7810498079726 704,526.5434455009386 704,508.0682368868706 688,498.83063257983656 672,508.0682368868706 672,526.5434455009386 688,535.7810498079726"
     class="hexagons-background__hexagon hexagons-background__hexagon--7" />
  <polygon
     points="704,563.4938627290747 720,554.2562584220407 720,535.7810498079727 704,526.5434455009387 688,535.7810498079726 688,554.2562584220407 704,563.4938627290747"
     class="hexagons-background__hexagon hexagons-background__hexagon--3" />
  <polygon
     points="720,480.35542396576864 736,471.1178196587346 736,452.6426110446666 720,443.40500673763256 704,452.6426110446666 704,471.1178196587346 720,480.35542396576864"
     class="hexagons-background__hexagon hexagons-background__hexagon--3" />
  <polygon
     points="736,508.0682368868707 752,498.8306325798367 752,480.35542396576864 736,471.1178196587346 720,480.35542396576864 720,498.8306325798367 736,508.0682368868707"
     class="hexagons-background__hexagon hexagons-background__hexagon--3" />
  <polygon
     points="720,535.7810498079726 736,526.5434455009386 736,508.0682368868706 720,498.83063257983656 704,508.0682368868706 704,526.5434455009386 720,535.7810498079726"
     class="hexagons-background__hexagon hexagons-background__hexagon--3" />
  <polygon
     points="736,563.4938627290747 752,554.2562584220407 752,535.7810498079727 736,526.5434455009387 720,535.7810498079726 720,554.2562584220407 736,563.4938627290747"
     class="hexagons-background__hexagon hexagons-background__hexagon--10" />
  <polygon
     points="752,480.35542396576864 768,471.1178196587346 768,452.6426110446666 752,443.40500673763256 736,452.6426110446666 736,471.1178196587346 752,480.35542396576864"
     class="hexagons-background__hexagon hexagons-background__hexagon--8" />
  <polygon
     points="768,508.0682368868707 784,498.8306325798367 784,480.35542396576864 768,471.1178196587346 752,480.35542396576864 752,498.8306325798367 768,508.0682368868707"
     class="hexagons-background__hexagon hexagons-background__hexagon--10" />
  <polygon
     points="752,535.7810498079726 768,526.5434455009386 768,508.0682368868706 752,498.83063257983656 736,508.0682368868706 736,526.5434455009386 752,535.7810498079726"
     class="hexagons-background__hexagon hexagons-background__hexagon--3" />
  <polygon
     points="768,563.4938627290747 784,554.2562584220407 784,535.7810498079727 768,526.5434455009387 752,535.7810498079726 752,554.2562584220407 768,563.4938627290747"
     class="hexagons-background__hexagon hexagons-background__hexagon--6" />
  <polygon
     points="784,480.35542396576864 800,471.1178196587346 800,452.6426110446666 784,443.40500673763256 768,452.6426110446666 768,471.1178196587346 784,480.35542396576864"
     class="hexagons-background__hexagon hexagons-background__hexagon--1" />
  <polygon
     points="800,508.0682368868707 816,498.8306325798367 816,480.35542396576864 800,471.1178196587346 784,480.35542396576864 784,498.8306325798367 800,508.0682368868707"
     class="hexagons-background__hexagon hexagons-background__hexagon--4" />
  <polygon
     points="784,535.7810498079726 800,526.5434455009386 800,508.0682368868706 784,498.83063257983656 768,508.0682368868706 768,526.5434455009386 784,535.7810498079726"
     class="hexagons-background__hexagon hexagons-background__hexagon--10" />
  <polygon
     points="800,563.4938627290747 816,554.2562584220407 816,535.7810498079727 800,526.5434455009387 784,535.7810498079726 784,554.2562584220407 800,563.4938627290747"
     class="hexagons-background__hexagon hexagons-background__hexagon--1" />
  <polygon
     points="816,480.35542396576864 832,471.1178196587346 832,452.6426110446666 816,443.40500673763256 800,452.6426110446666 800,471.1178196587346 816,480.35542396576864"
     class="hexagons-background__hexagon hexagons-background__hexagon--9" />
  <polygon
     points="832,508.0682368868707 848,498.8306325798367 848,480.35542396576864 832,471.1178196587346 816,480.35542396576864 816,498.8306325798367 832,508.0682368868707"
     class="hexagons-background__hexagon hexagons-background__hexagon--1" />
  <polygon
     points="816,535.7810498079726 832,526.5434455009386 832,508.0682368868706 816,498.83063257983656 800,508.0682368868706 800,526.5434455009386 816,535.7810498079726"
     class="hexagons-background__hexagon hexagons-background__hexagon--6" />
  <polygon
     points="832,563.4938627290747 848,554.2562584220407 848,535.7810498079727 832,526.5434455009387 816,535.7810498079726 816,554.2562584220407 832,563.4938627290747"
     class="hexagons-background__hexagon hexagons-background__hexagon--3" />
  <polygon
     points="848,480.35542396576864 864,471.1178196587346 864,452.6426110446666 848,443.40500673763256 832,452.6426110446666 832,471.1178196587346 848,480.35542396576864"
     class="hexagons-background__hexagon hexagons-background__hexagon--8" />
  <polygon
     points="864,508.0682368868707 880,498.8306325798367 880,480.35542396576864 864,471.1178196587346 848,480.35542396576864 848,498.8306325798367 864,508.0682368868707"
     class="hexagons-background__hexagon hexagons-background__hexagon--7" />
  <polygon
     points="848,535.7810498079726 864,526.5434455009386 864,508.0682368868706 848,498.83063257983656 832,508.0682368868706 832,526.5434455009386 848,535.7810498079726"
     class="hexagons-background__hexagon hexagons-background__hexagon--1" />
  <polygon
     points="864,563.4938627290747 880,554.2562584220407 880,535.7810498079727 864,526.5434455009387 848,535.7810498079726 848,554.2562584220407 864,563.4938627290747"
     class="hexagons-background__hexagon hexagons-background__hexagon--10" />
  <polygon
     points="880,480.35542396576864 896,471.1178196587346 896,452.6426110446666 880,443.40500673763256 864,452.6426110446666 864,471.1178196587346 880,480.35542396576864"
     class="hexagons-background__hexagon hexagons-background__hexagon--5" />
  <polygon
     points="896,508.0682368868707 912,498.8306325798367 912,480.35542396576864 896,471.1178196587346 880,480.35542396576864 880,498.8306325798367 896,508.0682368868707"
     class="hexagons-background__hexagon hexagons-background__hexagon--5" />
  <polygon
     points="880,535.7810498079726 896,526.5434455009386 896,508.0682368868706 880,498.83063257983656 864,508.0682368868706 864,526.5434455009386 880,535.7810498079726"
     class="hexagons-background__hexagon hexagons-background__hexagon--1" />
  <polygon
     points="896,563.4938627290747 912,554.2562584220407 912,535.7810498079727 896,526.5434455009387 880,535.7810498079726 880,554.2562584220407 896,563.4938627290747"
     class="hexagons-background__hexagon hexagons-background__hexagon--4" />
  <polygon
     points="912,480.35542396576864 928,471.1178196587346 928,452.6426110446666 912,443.40500673763256 896,452.6426110446666 896,471.1178196587346 912,480.35542396576864"
     class="hexagons-background__hexagon hexagons-background__hexagon--4" />
  <polygon
     points="928,508.0682368868707 944,498.8306325798367 944,480.35542396576864 928,471.1178196587346 912,480.35542396576864 912,498.8306325798367 928,508.0682368868707"
     class="hexagons-background__hexagon hexagons-background__hexagon--4" />
  <polygon
     points="912,535.7810498079726 928,526.5434455009386 928,508.0682368868706 912,498.83063257983656 896,508.0682368868706 896,526.5434455009386 912,535.7810498079726"
     class="hexagons-background__hexagon hexagons-background__hexagon--8" />
  <polygon
     points="928,563.4938627290747 944,554.2562584220407 944,535.7810498079727 928,526.5434455009387 912,535.7810498079726 912,554.2562584220407 928,563.4938627290747"
     class="hexagons-background__hexagon hexagons-background__hexagon--1" />
  <polygon
     points="944,480.35542396576864 960,471.1178196587346 960,452.6426110446666 944,443.40500673763256 928,452.6426110446666 928,471.1178196587346 944,480.35542396576864"
     class="hexagons-background__hexagon hexagons-background__hexagon--9" />
  <polygon
     points="960,508.0682368868707 976,498.8306325798367 976,480.35542396576864 960,471.1178196587346 944,480.35542396576864 944,498.8306325798367 960,508.0682368868707"
     class="hexagons-background__hexagon hexagons-background__hexagon--2" />
  <polygon
     points="944,535.7810498079726 960,526.5434455009386 960,508.0682368868706 944,498.83063257983656 928,508.0682368868706 928,526.5434455009386 944,535.7810498079726"
     class="hexagons-background__hexagon hexagons-background__hexagon--9" />
  <polygon
     points="960,563.4938627290747 976,554.2562584220407 976,535.7810498079727 960,526.5434455009387 944,535.7810498079726 944,554.2562584220407 960,563.4938627290747"
     class="hexagons-background__hexagon hexagons-background__hexagon--4" />
  <polygon
     points="976,480.35542396576864 992,471.1178196587346 992,452.6426110446666 976,443.40500673763256 960,452.6426110446666 960,471.1178196587346 976,480.35542396576864"
     class="hexagons-background__hexagon hexagons-background__hexagon--4" />
  <polygon
     points="992,508.0682368868707 1008,498.8306325798367 1008,480.35542396576864 992,471.1178196587346 976,480.35542396576864 976,498.8306325798367 992,508.0682368868707"
     class="hexagons-background__hexagon hexagons-background__hexagon--9" />
  <polygon
     points="976,535.7810498079726 992,526.5434455009386 992,508.0682368868706 976,498.83063257983656 960,508.0682368868706 960,526.5434455009386 976,535.7810498079726"
     class="hexagons-background__hexagon hexagons-background__hexagon--2" />
  <polygon
     points="992,563.4938627290747 1008,554.2562584220407 1008,535.7810498079727 992,526.5434455009387 976,535.7810498079726 976,554.2562584220407 992,563.4938627290747"
     class="hexagons-background__hexagon hexagons-background__hexagon--9" />
  <polygon
     points="1008,480.35542396576864 1024,471.1178196587346 1024,452.6426110446666 1008,443.40500673763256 992,452.6426110446666 992,471.1178196587346 1008,480.35542396576864"
     class="hexagons-background__hexagon hexagons-background__hexagon--5" />
  <polygon
     points="1024,508.0682368868707 1040,498.8306325798367 1040,480.35542396576864 1024,471.1178196587346 1008,480.35542396576864 1008,498.8306325798367 1024,508.0682368868707"
     class="hexagons-background__hexagon hexagons-background__hexagon--7" />
  <polygon
     points="1008,535.7810498079726 1024,526.5434455009386 1024,508.0682368868706 1008,498.83063257983656 992,508.0682368868706 992,526.5434455009386 1008,535.7810498079726"
     class="hexagons-background__hexagon hexagons-background__hexagon--10" />
  <polygon
     points="1024,563.4938627290747 1040,554.2562584220407 1040,535.7810498079727 1024,526.5434455009387 1008,535.7810498079726 1008,554.2562584220407 1024,563.4938627290747"
     class="hexagons-background__hexagon hexagons-background__hexagon--1" />
  <polygon
     points="1040,480.35542396576864 1056,471.1178196587346 1056,452.6426110446666 1040,443.40500673763256 1024,452.6426110446666 1024,471.1178196587346 1040,480.35542396576864"
     class="hexagons-background__hexagon hexagons-background__hexagon--2" />
  <polygon
     points="1056,508.0682368868707 1072,498.8306325798367 1072,480.35542396576864 1056,471.1178196587346 1040,480.35542396576864 1040,498.8306325798367 1056,508.0682368868707"
     class="hexagons-background__hexagon hexagons-background__hexagon--6" />
  <polygon
     points="1040,535.7810498079726 1056,526.5434455009386 1056,508.0682368868706 1040,498.83063257983656 1024,508.0682368868706 1024,526.5434455009386 1040,535.7810498079726"
     class="hexagons-background__hexagon hexagons-background__hexagon--4" />
  <polygon
     points="1056,563.4938627290747 1072,554.2562584220407 1072,535.7810498079727 1056,526.5434455009387 1040,535.7810498079726 1040,554.2562584220407 1056,563.4938627290747"
     class="hexagons-background__hexagon hexagons-background__hexagon--5" />
  <polygon
     points="1072,480.35542396576864 1088,471.1178196587346 1088,452.6426110446666 1072,443.40500673763256 1056,452.6426110446666 1056,471.1178196587346 1072,480.35542396576864"
     class="hexagons-background__hexagon hexagons-background__hexagon--3" />
  <polygon
     points="1088,508.0682368868707 1104,498.8306325798367 1104,480.35542396576864 1088,471.1178196587346 1072,480.35542396576864 1072,498.8306325798367 1088,508.0682368868707"
     class="hexagons-background__hexagon hexagons-background__hexagon--10" />
  <polygon
     points="1072,535.7810498079726 1088,526.5434455009386 1088,508.0682368868706 1072,498.83063257983656 1056,508.0682368868706 1056,526.5434455009386 1072,535.7810498079726"
     class="hexagons-background__hexagon hexagons-background__hexagon--5" />
  <polygon
     points="1088,563.4938627290747 1104,554.2562584220407 1104,535.7810498079727 1088,526.5434455009387 1072,535.7810498079726 1072,554.2562584220407 1088,563.4938627290747"
     class="hexagons-background__hexagon hexagons-background__hexagon--9" />
  <polygon
     points="1104,480.35542396576864 1120,471.1178196587346 1120,452.6426110446666 1104,443.40500673763256 1088,452.6426110446666 1088,471.1178196587346 1104,480.35542396576864"
     class="hexagons-background__hexagon hexagons-background__hexagon--9" />
  <polygon
     points="1120,508.0682368868707 1136,498.8306325798367 1136,480.35542396576864 1120,471.1178196587346 1104,480.35542396576864 1104,498.8306325798367 1120,508.0682368868707"
     class="hexagons-background__hexagon hexagons-background__hexagon--1" />
  <polygon
     points="1104,535.7810498079726 1120,526.5434455009386 1120,508.0682368868706 1104,498.83063257983656 1088,508.0682368868706 1088,526.5434455009386 1104,535.7810498079726"
     class="hexagons-background__hexagon hexagons-background__hexagon--1" />
  <polygon
     points="1120,563.4938627290747 1136,554.2562584220407 1136,535.7810498079727 1120,526.5434455009387 1104,535.7810498079726 1104,554.2562584220407 1120,563.4938627290747"
     class="hexagons-background__hexagon hexagons-background__hexagon--7" />
  <polygon
     points="1136,480.35542396576864 1152,471.1178196587346 1152,452.6426110446666 1136,443.40500673763256 1120,452.6426110446666 1120,471.1178196587346 1136,480.35542396576864"
     class="hexagons-background__hexagon hexagons-background__hexagon--8" />
  <polygon
     points="1152,508.0682368868707 1168,498.8306325798367 1168,480.35542396576864 1152,471.1178196587346 1136,480.35542396576864 1136,498.8306325798367 1152,508.0682368868707"
     class="hexagons-background__hexagon hexagons-background__hexagon--9" />
  <polygon
     points="1136,535.7810498079726 1152,526.5434455009386 1152,508.0682368868706 1136,498.83063257983656 1120,508.0682368868706 1120,526.5434455009386 1136,535.7810498079726"
     class="hexagons-background__hexagon hexagons-background__hexagon--7" />
  <polygon
     points="1152,563.4938627290747 1168,554.2562584220407 1168,535.7810498079727 1152,526.5434455009387 1136,535.7810498079726 1136,554.2562584220407 1152,563.4938627290747"
     class="hexagons-background__hexagon hexagons-background__hexagon--8" />
  <polygon
     points="1168,480.35542396576864 1184,471.1178196587346 1184,452.6426110446666 1168,443.40500673763256 1152,452.6426110446666 1152,471.1178196587346 1168,480.35542396576864"
     class="hexagons-background__hexagon hexagons-background__hexagon--2" />
  <polygon
     points="1184,508.0682368868707 1200,498.8306325798367 1200,480.35542396576864 1184,471.1178196587346 1168,480.35542396576864 1168,498.8306325798367 1184,508.0682368868707"
     class="hexagons-background__hexagon hexagons-background__hexagon--7" />
  <polygon
     points="1168,535.7810498079726 1184,526.5434455009386 1184,508.0682368868706 1168,498.83063257983656 1152,508.0682368868706 1152,526.5434455009386 1168,535.7810498079726"
     class="hexagons-background__hexagon hexagons-background__hexagon--3" />
  <polygon
     points="1184,563.4938627290747 1200,554.2562584220407 1200,535.7810498079727 1184,526.5434455009387 1168,535.7810498079726 1168,554.2562584220407 1184,563.4938627290747"
     class="hexagons-background__hexagon hexagons-background__hexagon--3" />
  <polygon
     points="1200,480.35542396576864 1216,471.1178196587346 1216,452.6426110446666 1200,443.40500673763256 1184,452.6426110446666 1184,471.1178196587346 1200,480.35542396576864"
     class="hexagons-background__hexagon hexagons-background__hexagon--6" />
  <polygon
     points="1216,508.0682368868707 1232,498.8306325798367 1232,480.35542396576864 1216,471.1178196587346 1200,480.35542396576864 1200,498.8306325798367 1216,508.0682368868707"
     class="hexagons-background__hexagon hexagons-background__hexagon--4" />
  <polygon
     points="1200,535.7810498079726 1216,526.5434455009386 1216,508.0682368868706 1200,498.83063257983656 1184,508.0682368868706 1184,526.5434455009386 1200,535.7810498079726"
     class="hexagons-background__hexagon hexagons-background__hexagon--1" />
  <polygon
     points="1216,563.4938627290747 1232,554.2562584220407 1232,535.7810498079727 1216,526.5434455009387 1200,535.7810498079726 1200,554.2562584220407 1216,563.4938627290747"
     class="hexagons-background__hexagon hexagons-background__hexagon--7" />
  <polygon
     points="1232,480.35542396576864 1248,471.1178196587346 1248,452.6426110446666 1232,443.40500673763256 1216,452.6426110446666 1216,471.1178196587346 1232,480.35542396576864"
     class="hexagons-background__hexagon hexagons-background__hexagon--8" />
  <polygon
     points="1248,508.0682368868707 1264,498.8306325798367 1264,480.35542396576864 1248,471.1178196587346 1232,480.35542396576864 1232,498.8306325798367 1248,508.0682368868707"
     class="hexagons-background__hexagon hexagons-background__hexagon--7" />
  <polygon
     points="1232,535.7810498079726 1248,526.5434455009386 1248,508.0682368868706 1232,498.83063257983656 1216,508.0682368868706 1216,526.5434455009386 1232,535.7810498079726"
     class="hexagons-background__hexagon hexagons-background__hexagon--10" />
  <polygon
     points="1248,563.4938627290747 1264,554.2562584220407 1264,535.7810498079727 1248,526.5434455009387 1232,535.7810498079726 1232,554.2562584220407 1248,563.4938627290747"
     class="hexagons-background__hexagon hexagons-background__hexagon--7" />
  <polygon
     points="1264,480.35542396576864 1280,471.1178196587346 1280,452.6426110446666 1264,443.40500673763256 1248,452.6426110446666 1248,471.1178196587346 1264,480.35542396576864"
     class="hexagons-background__hexagon hexagons-background__hexagon--10" />
  <polygon
     points="1280,508.0682368868707 1296,498.8306325798367 1296,480.35542396576864 1280,471.1178196587346 1264,480.35542396576864 1264,498.8306325798367 1280,508.0682368868707"
     class="hexagons-background__hexagon hexagons-background__hexagon--8" />
  <polygon
     points="1264,535.7810498079726 1280,526.5434455009386 1280,508.0682368868706 1264,498.83063257983656 1248,508.0682368868706 1248,526.5434455009386 1264,535.7810498079726"
     class="hexagons-background__hexagon hexagons-background__hexagon--9" />
  <polygon
     points="1280,563.4938627290747 1296,554.2562584220407 1296,535.7810498079727 1280,526.5434455009387 1264,535.7810498079726 1264,554.2562584220407 1280,563.4938627290747"
     class="hexagons-background__hexagon hexagons-background__hexagon--1" />
</svg>
