<svg id="0af72014-a3d7-4510-a94c-61e0567f06f5" data-name="Layer 1" xmlns="http://www.w3.org/2000/svg" width="427.02" height="493.08" viewBox="0 0 427.02 493.08" class="{{ class }}">
<title>SecureDrop Logo in Solid Black</title>
	<g>
		<path d="M348.85,261.93l-48.57,28v68.39l49.39-27.69a18.8,18.8,0,0,0,9.61-16.4V268A7,7,0,0,0,348.85,261.93Z"/>
		<path d="M213.51,0,0,123.27V369.81L213.51,493.08,427,369.81V123.27ZM190.73,82.82c21.86,0,39.58,10,39.58,22.22a13.68,13.68,0,0,1-2,6.93l60.2,22.14L247.18,158l-47.87-31.3a68.52,68.52,0,0,1-8.58.54c-21.86,0-39.57-9.94-39.57-22.23S168.87,82.82,190.73,82.82ZM159.56,307.11,80,261.19v16.18l79.53,45.91v85.89L50.3,346.09v-35l74.77,43.17v-16L50.3,295.15V209.91L159.56,273Zm229.37,17.54a32.43,32.43,0,0,1-16.21,28.08L267,413.78V271.38l97.94-56.55a16,16,0,0,1,24,13.87Z"/>
	</g>
	<path d="M196.61,104.33c24.95,0,31.73,10.91,31.73,10.91v16.08L268.1,146l20.42-11.84L228.33,112a13.68,13.68,0,0,0,2-6.93c0-12.26-17.72-22.22-39.58-22.22s-39.57,10-39.57,22.22c0,5.17,3.14,9.92,8.4,13.69C165.2,110.33,179.65,104.33,196.61,104.33Z" style="fill-rule: evenodd;opacity: 0.5"/>
</svg>
