<svg class="{{class}}" width="319px" height="71px" viewBox="0 0 319 71" version="1.1" xmlns="http://www.w3.org/2000/svg" xmlns:xlink="http://www.w3.org/1999/xlink">
    <!-- Generator: Sketch 46.2 (44496) - http://www.bohemiancoding.com/sketch -->
    <title>Logo/White Text</title>
    <desc>Created with Sketch.</desc>
    <defs>
        <polygon id="path-1" points="0.0002 0.367 28.2822 0.367 28.2822 69.9993 0.0002 69.9993"></polygon>
        <polygon id="path-3" points="0.5373 0.367 28.8193 0.367 28.8193 69.9993 0.5373 69.9993 0.5373 0.367"></polygon>
    </defs>
    <g id="Symbols" stroke="none" stroke-width="1" fill="none" fill-rule="evenodd">
        <g id="Logo/White-Text">
            <g id="SD-Logo">
                <g id="Group-3" transform="translate(0.000000, 0.633400)">
                    <mask id="mask-2" fill="white">
                        <use xlink:href="#path-1"></use>
                    </mask>
                    <g id="Clip-2"></g>
                    <path d="M20.7722,1.3423 C22.2682,1.9923 23.5692,2.8693 24.6732,3.9743 C25.7792,5.0803 26.6572,6.3803 27.3072,7.8763 C27.9562,9.3723 28.2822,10.9643 28.2822,12.6553 L28.2822,16.3613 C28.2822,17.2723 27.8592,17.8573 27.0152,18.1163 L18.1402,20.4563 C17.2952,20.7173 16.8722,20.3933 16.8722,19.4813 L16.8722,13.1433 C16.8722,12.4933 16.6432,11.9403 16.1892,11.4843 C15.7322,11.0303 15.1812,10.8013 14.5312,10.8013 L13.7512,10.8013 C13.1012,10.8013 12.5472,11.0303 12.0932,11.4843 C11.6372,11.9403 11.4102,12.4933 11.4102,13.1433 L11.4102,22.0173 C11.4752,22.7343 11.6052,23.3513 11.8012,23.8703 C11.9962,24.3913 12.3532,24.9103 12.8742,25.4313 L25.6502,34.9883 C26.6892,35.8993 27.3562,36.8253 27.6482,37.7673 C27.9422,38.7103 28.1522,39.7663 28.2822,40.9383 L28.2822,57.7123 C28.2822,59.4033 27.9562,60.9953 27.3072,62.4903 C26.6572,63.9873 25.7792,65.2863 24.6732,66.3913 C23.5692,67.4973 22.2682,68.3753 20.7722,69.0243 C19.2772,69.6733 17.6842,69.9993 15.9942,69.9993 L12.2882,69.9993 C10.5962,69.9993 9.0052,69.6733 7.5102,69.0243 C6.0122,68.3753 4.7132,67.4973 3.6092,66.3913 C2.5022,65.2863 1.6252,63.9873 0.9752,62.4903 C0.3242,60.9953 0.0002,59.4033 0.0002,57.7123 L0.0002,48.3493 C0.0002,47.4393 0.4212,46.8553 1.2682,46.5933 L10.1422,44.2523 C10.9872,43.9943 11.4102,44.3193 11.4102,45.2283 L11.4102,57.2243 C11.4102,57.8743 11.6372,58.4273 12.0932,58.8823 C12.5472,59.3373 13.1012,59.5643 13.7512,59.5643 L14.5312,59.5643 C15.1812,59.5643 15.7322,59.3373 16.1892,58.8823 C16.6432,58.4273 16.8722,57.8743 16.8722,57.2243 L16.8722,44.3503 C16.8072,43.5063 16.6772,42.7583 16.4822,42.1083 C16.2862,41.4583 15.8972,40.8723 15.3112,40.3523 L2.7312,30.6973 C1.7542,29.7873 1.0562,28.8773 0.6342,27.9663 C0.2102,27.0573 0.0002,25.8543 0.0002,24.3583 L0.0002,12.6553 C0.0002,10.9643 0.3242,9.3723 0.9752,7.8763 C1.6252,6.3803 2.5022,5.0803 3.6092,3.9743 C4.7132,2.8693 6.0122,1.9923 7.5102,1.3423 C9.0052,0.6933 10.5962,0.3663 12.2882,0.3663 L15.9942,0.3663 C17.6842,0.3663 19.2772,0.6933 20.7722,1.3423" id="Fill-1" fill="#FFFFFF" mask="url(#mask-2)"></path>
                </g>
                <path d="M56.8562,59.9054 L56.8562,68.5854 C56.8562,69.4964 56.4022,69.9504 55.4932,69.9504 L34.3292,69.9504 C33.4172,69.9504 32.9632,69.4964 32.9632,68.5854 L32.9632,3.0484 C32.9632,2.1374 33.4172,1.6824 34.3292,1.6824 L55.4932,1.6824 C56.4022,1.6824 56.8562,2.1374 56.8562,3.0484 L56.8562,11.7274 C56.8562,12.6394 56.4022,13.0924 55.4932,13.0924 L44.3742,13.0924 L44.3742,27.1364 L54.0292,27.1364 C54.9392,27.1364 55.3932,27.5924 55.3932,28.5024 L55.3932,37.1814 C55.3932,38.0934 54.9392,38.5484 54.0292,38.5484 L44.3742,38.5484 L44.3742,58.5404 L55.4932,58.5404 C56.4022,58.5404 56.8562,58.9964 56.8562,59.9054" id="Fill-4" fill="#FFFFFF"></path>
                <g id="Group-8" transform="translate(61.000000, 0.633400)">
                    <mask id="mask-4" fill="white">
                        <use xlink:href="#path-3"></use>
                    </mask>
                    <g id="Clip-7"></g>
                    <path d="M21.3093,1.3423 C22.8043,1.9923 24.1043,2.8693 25.2103,3.9743 C26.3143,5.0803 27.1923,6.3803 27.8443,7.8763 C28.4933,9.3723 28.8193,10.9643 28.8193,12.6553 L28.8193,20.4563 C28.8193,21.3673 28.3953,21.9533 27.5503,22.2113 L18.6773,23.5773 C17.8303,23.8383 17.4093,23.5143 17.4093,22.6023 L17.4093,13.1433 C17.4093,12.4933 17.1793,11.9403 16.7253,11.4843 C16.2703,11.0303 15.7163,10.8013 15.0683,10.8013 L14.2883,10.8013 C13.6373,10.8013 13.0843,11.0303 12.6303,11.4843 C12.1743,11.9403 11.9483,12.4933 11.9483,13.1433 L11.9483,57.2243 C11.9483,57.8743 12.1743,58.4273 12.6303,58.8823 C13.0843,59.3373 13.6373,59.5643 14.2883,59.5643 L15.0683,59.5643 C15.7163,59.5643 16.2703,59.3373 16.7253,58.8823 C17.1793,58.4273 17.4093,57.8743 17.4093,57.2243 L17.4093,43.5703 C17.4093,42.6603 17.8303,42.3353 18.6773,42.5953 L27.5503,43.7653 C28.3953,44.0263 28.8193,44.6123 28.8193,45.5213 L28.8193,57.7123 C28.8193,59.4033 28.4933,60.9953 27.8443,62.4903 C27.1923,63.9873 26.3143,65.2863 25.2103,66.3913 C24.1043,67.4973 22.8043,68.3753 21.3093,69.0243 C19.8143,69.6733 18.2213,69.9993 16.5313,69.9993 L12.8253,69.9993 C11.1323,69.9993 9.5393,69.6733 8.0463,69.0243 C6.5493,68.3753 5.2503,67.4973 4.1443,66.3913 C3.0393,65.2863 2.1603,63.9873 1.5113,62.4903 C0.8613,60.9953 0.5373,59.4033 0.5373,57.7123 L0.5373,12.6553 C0.5373,10.9643 0.8613,9.3723 1.5113,7.8763 C2.1603,6.3803 3.0393,5.0803 4.1443,3.9743 C5.2503,2.8693 6.5493,1.9923 8.0463,1.3423 C9.5393,0.6933 11.1323,0.3663 12.8253,0.3663 L16.5313,0.3663 C18.2213,0.3663 19.8143,0.6933 21.3093,1.3423" id="Fill-6" fill="#FFFFFF" mask="url(#mask-4)"></path>
                </g>
                <path d="M121.8054,3.048 L121.8054,58.346 C121.8054,60.036 121.4794,61.629 120.8304,63.124 C120.1804,64.62 119.3024,65.92 118.1994,67.025 C117.0924,68.131 115.7904,69.009 114.2954,69.657 C112.8004,70.307 111.2074,70.633 109.5174,70.633 L105.8114,70.633 C104.1214,70.633 102.5294,70.307 101.0334,69.657 C99.5374,69.009 98.2374,68.131 97.1324,67.025 C96.0264,65.92 95.1484,64.62 94.4994,63.124 C93.8474,61.629 93.5234,60.036 93.5234,58.346 L93.5234,3.048 C93.5234,2.138 93.9774,1.683 94.8894,1.683 L103.5684,1.683 C104.4784,1.683 104.9344,2.138 104.9344,3.048 L104.9344,57.858 C104.9344,58.508 105.1604,59.061 105.6174,59.516 C106.0714,59.971 106.6234,60.197 107.2744,60.197 L108.0544,60.197 C108.7044,60.197 109.2584,59.971 109.7124,59.516 C110.1674,59.061 110.3954,58.508 110.3954,57.858 L110.3954,3.048 C110.3954,2.138 110.8494,1.683 111.7604,1.683 L120.4424,1.683 C121.3514,1.683 121.8054,2.138 121.8054,3.048" id="Fill-9" fill="#FFFFFF"></path>
                <path d="M138.3835,31.7208 L141.5055,31.7208 C142.1545,31.7208 142.7075,31.4938 143.1635,31.0378 C143.6175,30.5838 143.8465,30.0308 143.8465,29.3798 L143.8465,14.4578 C143.8465,13.8098 143.6175,13.2558 143.1635,12.8008 C142.7075,12.3468 142.1545,12.1168 141.5055,12.1168 L138.3835,12.1168 L138.3835,31.7208 Z M157.2065,68.5848 C157.4015,69.4958 157.0765,69.9498 156.2325,69.9498 L147.3565,69.9498 C146.9675,69.9498 146.5925,69.8208 146.2355,69.5608 C145.8765,69.3008 145.6335,68.9748 145.5035,68.5848 L138.3835,44.6918 L138.3835,69.9498 L138.2855,68.9748 C138.1565,69.6258 137.7335,69.9498 137.0195,69.9498 L128.3385,69.9498 C127.4285,69.9498 126.9755,69.4958 126.9755,68.5848 L126.9755,3.0478 C126.9755,2.1378 127.4285,1.6828 128.3385,1.6828 L142.9695,1.6828 C144.6565,1.6828 146.2495,2.0088 147.7465,2.6578 C149.2405,3.3088 150.5415,4.1868 151.6485,5.2908 C152.7525,6.3978 153.6295,7.6978 154.2795,9.1928 C154.9305,10.6878 155.2575,12.2808 155.2575,13.9708 L155.2575,29.8668 C155.2575,32.2748 154.6365,34.4368 153.4035,36.3538 C152.1665,38.2708 150.5415,39.7508 148.5275,40.7898 L157.2065,68.5848 Z" id="Fill-11" fill="#FFFFFF"></path>
                <path d="M184.9031,59.9054 L184.9031,68.5854 C184.9031,69.4964 184.4471,69.9504 183.5371,69.9504 L162.3741,69.9504 C161.4641,69.9504 161.0091,69.4964 161.0091,68.5854 L161.0091,3.0484 C161.0091,2.1374 161.4641,1.6824 162.3741,1.6824 L183.5371,1.6824 C184.4471,1.6824 184.9031,2.1374 184.9031,3.0484 L184.9031,11.7274 C184.9031,12.6394 184.4471,13.0924 183.5371,13.0924 L172.4191,13.0924 L172.4191,27.1364 L182.0741,27.1364 C182.9841,27.1364 183.4401,27.5924 183.4401,28.5024 L183.4401,37.1814 C183.4401,38.0934 182.9841,38.5484 182.0741,38.5484 L172.4191,38.5484 L172.4191,58.5404 L183.5371,58.5404 C184.4471,58.5404 184.9031,58.9964 184.9031,59.9054" id="Fill-13" fill="#FFFFFF"></path>
                <path d="M207.4304,14.4581 C207.4304,13.8101 207.2014,13.2561 206.7464,12.8011 C206.2914,12.3471 205.7384,12.1171 205.0894,12.1171 L201.9694,12.1171 L201.9694,59.5161 L205.0894,59.5161 C205.7384,59.5161 206.2914,59.2881 206.7464,58.8331 C207.2014,58.3791 207.4304,57.8251 207.4304,57.1741 L207.4304,14.4581 Z M206.5524,1.6831 C208.2424,1.6831 209.8354,2.0091 211.3304,2.6571 C212.8264,3.3091 214.1254,4.1871 215.2324,5.2911 C216.3384,6.3971 217.2154,7.6971 217.8664,9.1921 C218.5144,10.6871 218.8404,12.2801 218.8404,13.9711 L218.8404,57.6621 C218.8404,59.3541 218.5144,60.9461 217.8664,62.4401 C217.2154,63.9371 216.3384,65.2371 215.2324,66.3431 C214.1254,67.4471 212.8264,68.3261 211.3304,68.9751 C209.8354,69.6261 208.2424,69.9501 206.5524,69.9501 L191.9244,69.9501 C191.0124,69.9501 190.5584,69.4961 190.5584,68.5851 L190.5584,3.0481 C190.5584,2.1381 191.0124,1.6831 191.9244,1.6831 L206.5524,1.6831 Z" id="Fill-15" fill-opacity="0.7" fill="#FFFFFF"></path>
                <path d="M235.4187,31.7208 L238.5407,31.7208 C239.1897,31.7208 239.7427,31.4938 240.1987,31.0378 C240.6527,30.5838 240.8817,30.0308 240.8817,29.3798 L240.8817,14.4578 C240.8817,13.8098 240.6527,13.2558 240.1987,12.8008 C239.7427,12.3468 239.1897,12.1168 238.5407,12.1168 L235.4187,12.1168 L235.4187,31.7208 Z M254.2417,68.5848 C254.4367,69.4958 254.1117,69.9498 253.2677,69.9498 L244.3917,69.9498 C244.0017,69.9498 243.6277,69.8208 243.2707,69.5608 C242.9117,69.3008 242.6687,68.9748 242.5387,68.5848 L235.4187,44.6918 L235.4187,69.9498 L235.3207,68.9748 C235.1907,69.6258 234.7687,69.9498 234.0547,69.9498 L225.3737,69.9498 C224.4637,69.9498 224.0107,69.4958 224.0107,68.5848 L224.0107,3.0478 C224.0107,2.1378 224.4637,1.6828 225.3737,1.6828 L240.0047,1.6828 C241.6917,1.6828 243.2847,2.0088 244.7817,2.6578 C246.2757,3.3088 247.5767,4.1868 248.6837,5.2908 C249.7877,6.3978 250.6647,7.6978 251.3147,9.1928 C251.9657,10.6878 252.2917,12.2808 252.2917,13.9708 L252.2917,29.8668 C252.2917,32.2748 251.6717,34.4368 250.4387,36.3538 C249.2017,38.2708 247.5767,39.7508 245.5627,40.7898 L254.2417,68.5848 Z" id="Fill-17" fill-opacity="0.7" fill="#FFFFFF"></path>
                <path d="M273.9402,13.7765 C273.9402,13.1275 273.7122,12.5735 273.2572,12.1175 C272.8032,11.6645 272.2502,11.4345 271.5992,11.4345 L270.8192,11.4345 C270.1692,11.4345 269.6162,11.6645 269.1622,12.1175 C268.7062,12.5735 268.4792,13.1275 268.4792,13.7765 L268.4792,57.8575 C268.4792,58.5075 268.7062,59.0605 269.1622,59.5155 C269.6162,59.9705 270.1692,60.1975 270.8192,60.1975 L271.5992,60.1975 C272.2502,60.1975 272.8032,59.9705 273.2572,59.5155 C273.7122,59.0605 273.9402,58.5075 273.9402,57.8575 L273.9402,13.7765 Z M285.3502,58.3455 C285.3502,60.0365 285.0242,61.6295 284.3762,63.1245 C283.7252,64.6205 282.8472,65.9205 281.7442,67.0245 C280.6372,68.1305 279.3362,69.0085 277.8402,69.6575 C276.3452,70.3065 274.7522,70.6325 273.0622,70.6325 L269.3562,70.6325 C267.6662,70.6325 266.0732,70.3065 264.5782,69.6575 C263.0832,69.0085 261.7822,68.1305 260.6772,67.0245 C259.5712,65.9205 258.6932,64.6205 258.0442,63.1245 C257.3922,61.6295 257.0682,60.0365 257.0682,58.3455 L257.0682,13.2885 C257.0682,11.5975 257.3922,10.0055 258.0442,8.5095 C258.6932,7.0135 259.5712,5.7135 260.6772,4.6075 C261.7822,3.5035 263.0832,2.6265 264.5782,1.9755 C266.0732,1.3265 267.6662,1.0005 269.3562,1.0005 L273.0622,1.0005 C274.7522,1.0005 276.3452,1.3265 277.8402,1.9755 C279.3362,2.6265 280.6372,3.5035 281.7442,4.6075 C282.8472,5.7135 283.7252,7.0135 284.3762,8.5095 C285.0242,10.0055 285.3502,11.5975 285.3502,13.2885 L285.3502,58.3455 Z" id="Fill-19" fill-opacity="0.7" fill="#FFFFFF"></path>
                <path d="M307.3914,14.4581 C307.3914,13.8101 307.1624,13.2561 306.7084,12.8011 C306.2524,12.3471 305.6994,12.1171 305.0504,12.1171 L301.9284,12.1171 L301.9284,31.7211 L305.0504,31.7211 C305.6994,31.7211 306.2524,31.4941 306.7084,31.0381 C307.1624,30.5841 307.3914,30.0301 307.3914,29.3801 L307.3914,14.4581 Z M306.5144,1.6831 C308.2024,1.6831 309.7944,2.0091 311.2914,2.6571 C312.7864,3.3091 314.0864,4.1871 315.1934,5.2911 C316.2974,6.3971 317.1744,7.6971 317.8254,9.1921 C318.4754,10.6871 318.8014,12.2801 318.8014,13.9711 L318.8014,29.8671 C318.8014,31.5591 318.4754,33.1511 317.8254,34.6451 C317.1744,36.1431 316.2974,37.4421 315.1934,38.5481 C314.0864,39.6531 312.7864,40.5311 311.2914,41.1801 C309.7944,41.8311 308.2024,42.1551 306.5144,42.1551 L301.9284,42.1551 L301.9284,68.5851 C301.9284,69.4961 301.4744,69.9501 300.5644,69.9501 L291.8834,69.9501 C290.9734,69.9501 290.5194,69.4961 290.5194,68.5851 L290.5194,3.0481 C290.5194,2.1381 290.9734,1.6831 291.8834,1.6831 L306.5144,1.6831 Z" id="Fill-21" fill-opacity="0.7" fill="#FFFFFF"></path>
            </g>
        </g>
    </g>
</svg>
