<svg xmlns="http://www.w3.org/2000/svg" width="70" height="80" fill="none" viewBox="0 0 70 80"><g clip-path="url(#a)"><path fill="#045fb4" d="M34.637 80V39.98l34.637-20.01v39.981zm25.821-22.78c1.639-.935 2.614-2.69 2.614-4.563V37.094c0-1.443-1.17-2.613-2.575-2.613q-.702 0-1.287.35l-15.914 9.206v23.091zm-11.74-10.18 7.879-4.524a1.15 1.15 0 0 1 1.56.429c.078.156.156.35.156.546v7.528a3.03 3.03 0 0 1-1.56 2.652l-8.035 4.447z"/><path fill="#2e8ae8" d="M34.637 39.98 0 20.01 34.637 0l34.637 20.01zm5.46-14.353 6.71-3.862-9.752-3.588a2.35 2.35 0 0 0 .312-1.132c0-1.989-2.886-3.588-6.436-3.588s-6.436 1.638-6.436 3.588 2.887 3.589 6.436 3.589c.468 0 .936-.04 1.405-.078z"/><path fill="#034482" d="M0 59.99 34.637 80V39.98L0 20.01zm8.152-9.517 12.13 7.02v-2.612L8.153 47.86V34.052l17.709 10.22v5.538L12.95 42.36v2.613l12.91 7.45v13.925L8.153 56.128z"/></g><defs><clipPath id="a"><path fill="#fff" d="M0 0h69.273v80H0z"/></clipPath></defs></svg>